<svg xmlns="http://www.w3.org/2000/svg" xmlns:xlink="http://www.w3.org/1999/xlink" viewBox="0 0 843.64 410.81"><defs><style>.cls-1{fill:url(#linear-gradient);}.cls-2{fill:#fff;}</style><linearGradient id="linear-gradient" x1="113.52" y1="-109.78" x2="667.93" y2="444.63" gradientUnits="userSpaceOnUse"><stop offset="0" stop-color="#5437dc"/><stop offset="1" stop-color="#2900a3"/></linearGradient></defs><g id="Layer_2" data-name="Layer 2"><g id="Layer_1-2" data-name="Layer 1"><polygon points="0 331.11 140.3 331.11 140.3 284.34 51.44 284.34 51.44 188.47 122.06 188.47 122.06 141.7 51.44 141.7 51.44 50.51 140.3 50.51 140.3 3.74 0 3.74 0 331.11"/><polygon points="281.06 236.17 243.18 3.74 171.63 3.74 171.63 331.11 216.53 331.11 216.53 99.61 254.88 331.11 303.51 331.11 339.06 96.34 339.06 331.11 387.69 331.11 387.69 3.74 316.14 3.74 281.06 236.17"/><path d="M499,0c-50.51,0-78.1,29.93-78.1,82.31V252.54c0,52.38,27.59,82.31,78.1,82.31s78.1-29.93,78.1-82.31V82.31C577.09,29.93,549.5,0,499,0Zm26.66,255.81c0,23.39-10.29,32.27-26.66,32.27s-26.66-8.88-26.66-32.27V79c0-23.39,10.29-32.27,26.66-32.27S525.65,55.65,525.65,79Z"/><path d="M643.5,253.48c0,25.25-13.1,31.33-29.47,31.33-5.61,0-12.16,0-17.77-.47v46.77c8.42.93,15.43.93,24.79.93,38.81,0,73.89-16.83,73.89-82.31V3.74H643.5Z"/><rect x="730.01" y="3.74" width="51.44" height="327.37"/><polygon class="cls-1" points="0 331.11 140.3 331.11 140.3 284.34 51.44 284.34 51.44 188.47 122.06 188.47 122.06 141.7 51.44 141.7 51.44 50.51 140.3 50.51 140.3 3.74 0 3.74 0 331.11"/><polygon class="cls-1" points="281.06 236.17 243.18 3.74 171.63 3.74 171.63 331.11 216.53 331.11 216.53 99.61 254.88 331.11 303.51 331.11 339.06 96.34 339.06 331.11 387.69 331.11 387.69 3.74 316.14 3.74 281.06 236.17"/><path class="cls-1" d="M499,0c-50.51,0-78.1,29.93-78.1,82.31V252.54c0,52.38,27.59,82.31,78.1,82.31s78.1-29.93,78.1-82.31V82.31C577.09,29.93,549.5,0,499,0Zm26.66,255.81c0,23.39-10.29,32.27-26.66,32.27s-26.66-8.88-26.66-32.27V79c0-23.39,10.29-32.27,26.66-32.27S525.65,55.65,525.65,79Z"/><path class="cls-1" d="M643.5,253.48c0,25.25-13.1,31.33-29.47,31.33-5.61,0-12.16,0-17.77-.47v46.77c8.42.93,15.43.93,24.79.93,38.81,0,73.89-16.83,73.89-82.31V3.74H643.5Z"/><rect class="cls-1" x="730.01" y="3.74" width="51.44" height="327.37"/><path class="cls-2" d="M458.82,379.71l-.06.06c0,.06,0,.12.06.12l.06-.06C458.88,379.77,458.88,379.71,458.82,379.71Z"/><path class="cls-2" d="M570.11,364.66a.13.13,0,0,0-.12.12h.18C570.17,364.72,570.17,364.66,570.11,364.66Z"/><path class="cls-2" d="M461.05,372.25a2.94,2.94,0,0,0-.12.64.85.85,0,0,0,.12.36,3.79,3.79,0,0,0,.47-1.3.38.38,0,0,0-.11-.29C461.35,371.66,461.23,371.83,461.05,372.25Z"/><path class="cls-2" d="M462.64,367.07c-.29,0-.41.24-.41.71s-.12.64-.35.7a.85.85,0,0,1,.17.47c0,.24-.35.88-.35,1.18s.06.29.12.29.29-.29.53-.82a4.18,4.18,0,0,0,.58-1.94C462.93,367.25,462.82,367.07,462.64,367.07Z"/><path class="cls-2" d="M463,366.25c-.06.06-.06.06-.06.12s0,.11.06.11S463.11,366.25,463,366.25Z"/><path class="cls-2" d="M464.05,363c-.06,0-.18.23-.35.76a4.43,4.43,0,0,1-.12.88,7.19,7.19,0,0,0-.29.82.46.46,0,0,0,.23.42,4.11,4.11,0,0,1,.3-1.18,5,5,0,0,0,.35-1.29C464.17,363.13,464.11,363,464.05,363Z"/><path class="cls-2" d="M571.76,364.19a.13.13,0,0,0,.12.12s.11,0,.11-.06-.11-.12-.17-.12S571.76,364.13,571.76,364.19Z"/><path class="cls-2" d="M568.35,364.31c-.06,0-.12,0-.12.06s.24.23.29.23.12,0,.12-.06S568.52,364.31,568.35,364.31Z"/><path class="cls-2" d="M569.35,364.54c-.3.06-.41.12-.41.18s.11.06.41.06.41,0,.47-.06S569.64,364.54,569.35,364.54Z"/><path class="cls-2" d="M553,360c-.17,0-.23.06-.23.11a.13.13,0,0,0,.12.12.28.28,0,0,0,.29-.17C553.18,360,553.12,360,553,360Z"/><path class="cls-2" d="M554.94,360.31v-.18h-.11C554.83,360.25,554.88,360.31,554.94,360.31Z"/><path class="cls-2" d="M554,360l-.06-.06c-.06,0-.06,0-.06.06s0,.06.06.06Z"/><path class="cls-2" d="M555.24,360.37l-.12-.12c-.06,0-.06.06-.06.12s.06.06.12.06S555.18,360.37,555.24,360.37Z"/><path class="cls-2" d="M553.36,361.31c-.06,0-.06,0-.06.06a.13.13,0,0,0,.12.12h.05v-.06C553.42,361.37,553.42,361.31,553.36,361.31Z"/><path class="cls-2" d="M554,361.37c-.23,0-.35.06-.35.23s.12.24.29.24.36-.12.36-.3A.28.28,0,0,0,554,361.37Z"/><path class="cls-2" d="M555.24,361.66c-.06,0-.06,0-.06.06s.06.06.12.06h.05C555.3,361.72,555.3,361.66,555.24,361.66Z"/><path class="cls-2" d="M558,362.25h-.29c0,.06.41.29.47.29s.11-.05.11-.11S558.18,362.25,558,362.25Z"/><path class="cls-2" d="M564.12,363.37c-.36,0-.53.06-.53.17s.17.18.47.18.41-.06.47-.18S564.41,363.37,564.12,363.37Z"/><path class="cls-2" d="M557.29,362c-.23,0-.35.06-.35.17s.06.06.24.06.23-.06.23-.12A.13.13,0,0,0,557.29,362Z"/><path class="cls-2" d="M567.47,364.13v.06c0,.06,0,.06,0,.12l.24.12C567.76,364.37,567.64,364.25,567.47,364.13Z"/><path class="cls-2" d="M565.41,363.9c0,.06.06.06.12.06a.31.31,0,0,0,.23-.12v-.12C565.53,363.72,565.41,363.78,565.41,363.9Z"/><path class="cls-2" d="M561.06,363c0,.06,0,.06.06.06s.29-.06.29-.18-.06-.06-.12-.06S561.06,362.84,561.06,363Z"/><path class="cls-2" d="M552.12,359.66H552c0,.06,0,.12.06.12Z"/><path class="cls-2" d="M547,359.9l-.41.06a6.56,6.56,0,0,1-1.89-.3,10.63,10.63,0,0,0-1.23-.23,19.29,19.29,0,0,1-3.06-.59,16.31,16.31,0,0,0-3.7-.65,3.57,3.57,0,0,1-1.59-.29c-.53-.18-.88-.29-1.11-.35s-.48.12-.48.41.71.65,2.12.65a11.36,11.36,0,0,1,1.47.11,10.44,10.44,0,0,0,1.88.47l1.88.24a29.12,29.12,0,0,0,2.94.53c1.94.17,2.88.41,2.88.59a.34.34,0,0,0,.24.11c.29,0,.59-.17.59-.41S547.3,359.9,547,359.9Z"/><path class="cls-2" d="M466.58,356.37c-.06,0-.12.12-.24.41s-.29.65-.47.94a13.32,13.32,0,0,0-.58,1.3c0,.11.11.17.17.17s.3-.17.47-.47a5.14,5.14,0,0,0,.82-2C466.75,356.49,466.7,356.37,466.58,356.37Z"/><path class="cls-2" d="M465.52,356.49l.06.06v-.12Z"/><path class="cls-2" d="M464.23,362.78h.06v-.06C464.23,362.72,464.23,362.72,464.23,362.78Z"/><path class="cls-2" d="M466.11,355.84c0-.17-.06-.29-.12-.29s-.23.06-.23.17.05.3.17.3A.16.16,0,0,0,466.11,355.84Z"/><path class="cls-2" d="M465.11,360c0-.06-.24.41-.18.41s0,.06.06.06c.24,0,.35-.3.35-.36S465.29,360,465.11,360Z"/><path class="cls-2" d="M465,361c-.12,0-.17.11-.17.41a.41.41,0,0,0,.11.23c.12,0,.18-.12.18-.41S465.05,361,465,361Z"/><path class="cls-2" d="M550.24,360.78h.06c.12,0,.12-.12,0-.12S550.24,360.72,550.24,360.78Z"/><path class="cls-2" d="M543.18,357.9l-.11-.12c-.06,0-.06,0-.06.06s.06.06.12.06Z"/><path class="cls-2" d="M550.59,360.9c.06,0,.06,0,.06-.06h-.12C550.53,360.9,550.53,360.9,550.59,360.9Z"/><path class="cls-2" d="M549.48,359.31c-.06.06-.06.06-.06.12Z"/><path class="cls-2" d="M551.12,361.08c0,.05.18.11.53.23a1.69,1.69,0,0,0,.53.12c.18,0,.24-.06.24-.12a3.13,3.13,0,0,0-1.12-.35C551.18,361,551.12,361,551.12,361.08Z"/><path class="cls-2" d="M549,360.66c0,.06,0,.06.11.06s.06,0,.06-.06S549,360.6,549,360.66Z"/><path class="cls-2" d="M548.12,360.55c0,.11.06.17.24.17.35,0,.53-.06.53-.17a.85.85,0,0,0-.53-.12C548.18,360.43,548.12,360.49,548.12,360.55Z"/><path class="cls-2" d="M531.43,292.52c0,.06,0,.06.06.06.23,0,.35-.06.35-.23h-.12C531.54,292.35,531.43,292.41,531.43,292.52Z"/><path class="cls-2" d="M522.49,298.7l.06-.06c0-.06,0-.06-.06-.06Z"/><path class="cls-2" d="M526.19,296.17c0,.06,0,.06.06.06s.3-.06.3-.24,0-.06-.06-.06S526.19,296.05,526.19,296.17Z"/><path class="cls-2" d="M523.2,298.46a.12.12,0,0,0,.11.12c.12,0,.24-.06.41-.24s.36-.47.36-.64,0-.06-.06-.06S523.2,298.23,523.2,298.46Z"/><path class="cls-2" d="M514.32,304.4h.12s.11,0,.11-.06-.06-.06-.11-.06A.13.13,0,0,0,514.32,304.4Z"/><path class="cls-2" d="M513.38,305.4c0,.06,0,.06.06.06.29-.18.52-.24.52-.36s0-.05-.05-.05S513.38,305.28,513.38,305.4Z"/><path class="cls-2" d="M530.84,293.11c.06,0,.06,0,.12-.06l-.06-.06-.06.06Z"/><path class="cls-2" d="M533.6,290.94c0,.06.06.06.12.06v-.06c0-.06,0-.06-.06-.06Z"/><path class="cls-2" d="M528.13,294.76c1.18-.53,1.77-.83,1.77-1v-.06c0,.12-.3.29-.82.53S528.19,294.64,528.13,294.76Z"/><path class="cls-2" d="M530,293.41l-.06-.06c-.06,0-.12.06-.12.17S530,293.46,530,293.41Z"/><path class="cls-2" d="M579.52,363c0-.18-.06-.24-.12-.24s-.23.06-.23.18.05.23.17.23S579.52,363.07,579.52,363Z"/><path class="cls-2" d="M573.05,365.43c0,.05.06.11.18.17l.17.06C573.4,365.6,573.29,365.54,573.05,365.43Z"/><path class="cls-2" d="M568.88,360.66v.06a.13.13,0,0,0,.12-.12C568.94,360.66,568.94,360.66,568.88,360.66Z"/><path class="cls-2" d="M578.4,362.9c0-.06-.06-.12-.12-.18a.69.69,0,0,0-.53-.23.32.32,0,0,0-.35.23c0,.06.12.06.41.12Z"/><path class="cls-2" d="M576.81,362.49h-.11l0,.05C576.81,362.54,576.81,362.54,576.81,362.49Z"/><path class="cls-2" d="M571.82,361.37c-.06-.12-.12-.18-.24-.18s-.17.06-.23.12l.35.18A.13.13,0,0,0,571.82,361.37Z"/><path class="cls-2" d="M576.29,362.43c0-.06,0-.12-.06-.12s-.06.06-.12.12.06.06.12.06S576.29,362.49,576.29,362.43Z"/><path class="cls-2" d="M559.18,358.61l.06.11s0-.05,0-.17h0C559.18,358.55,559.18,358.55,559.18,358.61Z"/><path class="cls-2" d="M535.54,289.58a.22.22,0,0,0,.18.06c.17-.06.23-.06.23-.11a.13.13,0,0,0-.11-.12C535.66,289.47,535.54,289.53,535.54,289.58Z"/><path class="cls-2" d="M528.72,354c-.12,0-.17.18-.17.47,0,.06,0,.06.05.06a3.91,3.91,0,0,0,.18-.47C528.78,354,528.78,354,528.72,354Z"/><path class="cls-2" d="M525.43,355.08a.16.16,0,0,0-.18-.18Z"/><path class="cls-2" d="M554.59,357.72c0,.06,0,.06.06.06s.06,0,.06-.06,0-.05-.06-.05Z"/><path class="cls-2" d="M574.11,365.48l-.06.06a.22.22,0,0,0,.18.06C574.17,365.54,574.17,365.48,574.11,365.48Z"/><path class="cls-2" d="M578.11,366.42c0,.18.11.24.35.24s.18-.06.18-.12a2.49,2.49,0,0,0-.47-.17C578.11,366.37,578.11,366.37,578.11,366.42Z"/><path class="cls-2" d="M579.17,366.54c-.24,0-.36.06-.36.12s.18.12.47.12.3,0,.36.06c0-.12.17,0,.17-.12S579.52,366.54,579.17,366.54Z"/><path class="cls-2" d="M552.53,357.55s.41.23.36.23c.17,0,.35-.41.53-.41l-.3-.06C552.77,357.31,552.59,357.37,552.53,357.55Z"/><path class="cls-2" d="M539.66,286.76h.12a2.41,2.41,0,0,0,1.11-.59c.71-.47,1.06-.82,1.06-1l-.88.3A2.73,2.73,0,0,0,539.66,286.76Z"/><path class="cls-2" d="M538.25,287.64c.23,0,.7-.17.7-.29-.53.06-.82.12-.82.29Z"/><polygon class="cls-2" points="537.84 288.11 537.84 288.06 537.78 288 537.72 288 537.84 288.11"/><path class="cls-2" d="M553.71,357.67h.06v-.18c-.06,0-.12,0-.12.06S553.65,357.61,553.71,357.67Z"/><path class="cls-2" d="M644.71,304.69a7.18,7.18,0,0,0-4.53-1.58,7.36,7.36,0,0,0-4.47,1.64,62.52,62.52,0,0,0-8.76,7.94c-1.23,1.29-2.06,2.12-2.35,2.53a9.35,9.35,0,0,1-1,1.17c-1,.89-1.7,1.94-2.7,2.82a4.9,4.9,0,0,0-1.06,1.12c-.82,1.06-1.65,2.12-2.53,3.18-.59.7-1.65,2.05-3.23,4.11s-3.24,4.06-4.94,6a38.82,38.82,0,0,0-3.35,4.41c-.3.41-.53.76-.83,1.12-.94,1.11-2,2.88-2.52,3.58-.71.94-1.3,2.35-1.59,2.35s-.24-.11-.24-.35a24.81,24.81,0,0,1,1.12-3.76,3.88,3.88,0,0,0,.24-1.41,7.19,7.19,0,0,1,.53-2,14.66,14.66,0,0,0,.76-1.94c.35-1,.7-2.06,1.12-3.06.35-.82.64-1.64.94-2.53.41-1.23.88-2.41,1.41-3.64a22.11,22.11,0,0,0,1.06-2.77,5.49,5.49,0,0,1,.82-1.88,6.18,6.18,0,0,0,1.18-2.41,4.15,4.15,0,0,1,.82-1.88,5.45,5.45,0,0,0,1.06-1.82,20.57,20.57,0,0,1,1.35-3.35,21.58,21.58,0,0,0,1.7-4.65,6.16,6.16,0,0,0,.18-1.17,1.62,1.62,0,0,0-.18-.77,1.33,1.33,0,0,0-1.05-.53c-.3,0-.47-.06-.47-.23s.35-.41.35-.71-.59-.41-1.35-.47c-.53-.06-1-.29-1.47-.29a1.12,1.12,0,0,0-.65.23,9.85,9.85,0,0,0-2.24,2.83,12.4,12.4,0,0,1-1.41,2.05,3.91,3.91,0,0,0-1.17,2.3c0,.7.17,1.53.17,1.82a3.26,3.26,0,0,1-.47,1.7,9.93,9.93,0,0,0-.76,2.06,25.58,25.58,0,0,1-1.12,3.41c-.29.77-.47,1.3-.64,1.65a11.32,11.32,0,0,0-.65,1.88,3.25,3.25,0,0,1-.59,1.88,5,5,0,0,0-.92,2c-.21.16-.42.32-.66.52-2.59,2-5.24,3.88-7.94,5.58a54.57,54.57,0,0,1-8.41,4.59,22.27,22.27,0,0,1-4.41,1.12,7.52,7.52,0,0,1-1.94.23,9.09,9.09,0,0,1-2.17-.29,3.43,3.43,0,0,1-2.18-1.88,2.83,2.83,0,0,0-.41-.77,7,7,0,0,1-.94-1.64,8.47,8.47,0,0,1-.35-2.77,17.83,17.83,0,0,1,.23-3,9.07,9.07,0,0,1,.88-3.11,6.29,6.29,0,0,0,.48-1.12c.17-.65.23-1,.29-1.17.18-.53.47-.83.82-.83s.94.41,1.82,1.24a7,7,0,0,0,5,2.06c.18,0,.65,0,1.41-.06a4.34,4.34,0,0,0,2.65-1.71,23.89,23.89,0,0,0,2.59-3.76,26.88,26.88,0,0,0,2.41-5.53,5.55,5.55,0,0,1,.41-1.35,7,7,0,0,0,.35-1.94c0-2.23-1.53-4.17-4.59-5.76a5.71,5.71,0,0,0-2.88-.77,7,7,0,0,0-4.41,1.77,18.75,18.75,0,0,0-3.76,3.64,25,25,0,0,0-2,2.41,4.49,4.49,0,0,1-.7.94c-.53.3-.41,1.12-.83,1.65-.47.76-.58,1.47-1,2.18a9.45,9.45,0,0,0-1.12,1.94,25.45,25.45,0,0,0-2.29,9.64,18.47,18.47,0,0,0,.52,4.35q1.77,6.26,8.47,8.82a9.75,9.75,0,0,0,2.35.64,7.08,7.08,0,0,1,.83-.11.5.5,0,0,1,.35.11,1,1,0,0,0,.7.3,10.35,10.35,0,0,0,2.77-.83,27.05,27.05,0,0,0,6.41-2.76c1.17-.76,2.35-1.53,3.58-2.29.65-.41,1.35-.71,1.53-1.88a1.63,1.63,0,0,1,.12-.53,2.89,2.89,0,0,1,1.23-1.12,3.61,3.61,0,0,0,1.53-1.29,34.22,34.22,0,0,1,2.51-2.62c-.2.66-.45,1.43-.75,2.32-.82,2.71-1.53,5.41-2.17,8.12a19.62,19.62,0,0,0-.65,4.94,7.83,7.83,0,0,0,2.65,4.58,2.21,2.21,0,0,0,1.58.77c.65,0,1.18-.53,1.59-.53s.59.17,1.12.17a2,2,0,0,0,1.82-2c0-.64.82-2.17,2.47-4.46.53-.77,1-1.47,1.47-2.24s1.18-1.82,1.82-2.7c.41-.53.94-1.3,1.71-2.41a11.43,11.43,0,0,1,1.53-2,10.81,10.81,0,0,0,.94-1.18,8.36,8.36,0,0,1,.58-.76,17.56,17.56,0,0,0,1.42-2.06,15.9,15.9,0,0,1,2.11-2.82,10.92,10.92,0,0,0,1.41-1.82,3.83,3.83,0,0,1,.77-1,17.06,17.06,0,0,0,1.7-2.11c.53-.77.94-1.3,1.12-1.65a4,4,0,0,1,1.59-1.7,6.78,6.78,0,0,0,2.35-2.53,4,4,0,0,1,1.12-1.12,9.74,9.74,0,0,0,1.58-1.53,13.34,13.34,0,0,1,1.53-1.53,6.18,6.18,0,0,0,1.59-1.82c.88-1.35,2.06-1.53,2.82-2.29a15.13,15.13,0,0,1,2.47-1.59,6.29,6.29,0,0,1,2.53-1c1.29,0,1.7,1.24,1.82,2.41a.45.45,0,0,0,.06.3,37.42,37.42,0,0,1,.29,4.88,15.12,15.12,0,0,1-.29,2.88c-.12.59-.24,1.47-.41,2.58-.24,1.36-.47,2.77-.65,4.18a21.45,21.45,0,0,1-.53,2.7,4.7,4.7,0,0,1-1.41,2l-2,1.88c-.41.41-.88.77-1.29,1.12a12.21,12.21,0,0,0-2.65,2.53,7.84,7.84,0,0,1-1.41,1.41,13.4,13.4,0,0,0-2.29,2.82,17.48,17.48,0,0,1-1.24,1.53c-.41.53-.7.88-.94,1.18a10.27,10.27,0,0,0-1,1.17,15.07,15.07,0,0,1-1.41,2c-2.41,2.88-4.47,6.17-6.64,9.29-1.18,1.7-2.12,3.47-3.23,5.06-.83,1.23-1.59,2.46-2.3,3.76l-3.64,6.52c-.25.46-.49.93-.73,1.4a8.27,8.27,0,0,0-2.73-.45,1.91,1.91,0,0,1-.53.05.83.83,0,0,1-.41-.11v-.12l.06-.06c0-.06-.06-.06-.18-.06a7.5,7.5,0,0,1-.76.06,1.39,1.39,0,0,1-.41-.12,2.1,2.1,0,0,0-1.06-.23c-.24,0-.47.06-1.12.06a6.42,6.42,0,0,1-2.29-.65,2.81,2.81,0,0,0-1.65-.41,3.48,3.48,0,0,1-1.41-.3c-.18-.06-.53-.11-1.17-.29a4.9,4.9,0,0,1-.89-.24,7.89,7.89,0,0,0-1.53-.41c-.47,0-1.23.24-1.94.24a.71.71,0,0,1-.76-.59c-.12-.41-.59-.65-1.47-.71a3.51,3.51,0,0,1-1.29-.17,2.42,2.42,0,0,0-.65-.53c-.41,0-.41,1.06-.71,1.06s-.35-.18-.52-.47a1.7,1.7,0,0,0-.42-.47l-.88-.18a4.85,4.85,0,0,1-1.41-.29,1.43,1.43,0,0,1-.82-.83q-.18.27-1.41.36c-.18.05-.24.05-.24.11s.09.16.16.19h0l-.41.12c-.18-.06-.18-.12-.18-.36s-.17-.41-.47-.52a9.67,9.67,0,0,0-1.76-.24,4.83,4.83,0,0,1-2.06-.41,1.31,1.31,0,0,0-.59-.18c-.29,0-.7.36-.88.36a1,1,0,0,1-.41-.18,4.7,4.7,0,0,0-1.65-.71c-.59-.17-.94-.29-1-.29a.54.54,0,0,0-.41.18c.18.05.3.05.3.11s-.12.18-.42.24a1.37,1.37,0,0,1-1.23-.53,2.49,2.49,0,0,0-1.18-.71c-.11,0-.23.12-.41.36a.63.63,0,0,1-.53.29.68.68,0,0,1-.7-.59c-.06-.29-.18-.41-.3-.41a.89.89,0,0,0-.47.3c-.47,0-.35-.53-1.06-.53a9.26,9.26,0,0,1-2.17-.47,22,22,0,0,0-2.53-.59,18.52,18.52,0,0,1-2.88-.65c-.29,0-.41.18-.41.47-.18,0-.35-.12-.59-.35s-.47-.41-1-.41a9.65,9.65,0,0,1-1.41-.36.32.32,0,0,0-.29.12,1.11,1.11,0,0,1,.17.41c0,.06-.06.12-.23.12a.91.91,0,0,1-.47-.53,1,1,0,0,0-1-.53,11.43,11.43,0,0,1-1.41.06c-.36-.06-.59-.17-.65-.35v-.12c0-.06.18-.18.24-.41s-.53-.53-1.65-.65c-.65-.11-1.24-.23-1.76-.29a8.18,8.18,0,0,1-2.06-.41c-2.65-.88-5.41-1.12-8.06-1.88a15.87,15.87,0,0,0-2.35-.42l-1.94-.35c-3-.76-6-1.35-9-1.82-1.59-.29-3.18-.59-4.77-.94-2.47-.47-7.11-1.24-13.87-2.35-2.88-.53-4.76-.83-5.53-.89a24,24,0,0,1-2.7-.41,51.39,51.39,0,0,1-8.53-1.29,23.34,23.34,0,0,0-4.41-.71,5,5,0,0,1-1.64-.35,6,6,0,0,0-1.24-.29c-.41,0-.7.06-1,.06-.88,0-3.35-.71-5.52-.71-1.47,0-2.24-.12-2.3-.41a1.2,1.2,0,0,1-.05-.35,1.34,1.34,0,0,1,.23-.71,14.57,14.57,0,0,0,1.59-5c.23-1.35,1.29-2.11,1.59-3.23a3.11,3.11,0,0,1,.88-1.12,1.15,1.15,0,0,0,.53-.53.88.88,0,0,1,.76-.58,6.13,6.13,0,0,0,1.53-1.06,4.76,4.76,0,0,0,1.12-1.18,1.24,1.24,0,0,1,1.05-.76,4.22,4.22,0,0,0,1.94-1.53,4.43,4.43,0,0,1,1.83-1.47,1.44,1.44,0,0,0,1-1c.06-.35.29-.53.7-.59.18,0,.24.12.41.12a.45.45,0,0,0,.42-.24,2.3,2.3,0,0,1,.94-.7,2.41,2.41,0,0,0,1-.82,2.84,2.84,0,0,1,1.12-.94,5.08,5.08,0,0,0,1-.77c.77-.53.71-1.23,1.12-1.23.23,0,.41,0,.65,0s.41-.17.58-.46c.3-.59.89-.71,1.3-1.36.53-.94,1.29-.59,1.29-1s.06-.64.24-.64a2.25,2.25,0,0,1,.35.11c.53,0,.94-.35,1.35-1.05.06-.18.06-.24.12-.3s.17-.23.53-.35a7,7,0,0,0,3.29-1.88,3.38,3.38,0,0,0,.7-1.06.39.39,0,0,1,.36-.41.68.68,0,0,0,.41.23c.41,0,.47-1,1.65-1.29.53-.29.82-.53.82-.71s-.06-.11-.18-.17a1.06,1.06,0,0,1,.83-.24,3.33,3.33,0,0,0,2-.94,4.73,4.73,0,0,1,2.24-1.06,3.93,3.93,0,0,0,1.17-.41,1,1,0,0,0,.71-.41c0-.18-.12-.23-.29-.23l-.47.05c-.3,0-.47-.05-.47-.23s.35-.35,1.05-.53a1.69,1.69,0,0,0,.59-.18c.29-.29.41-1.06.65-1.29.35-.65.7-1.06,1-1.12,1.23-.17,1.23-.29,1.53-.7a1.91,1.91,0,0,1,.7-.47c.77-.3,1.18-1.06,1.47-1.06s.47.06.77.06a.68.68,0,0,0,.76-.65c0-.35.47-.76,1.41-1.29a22.24,22.24,0,0,0,2.94-2.06,26,26,0,0,1,2.94-1.94,16.86,16.86,0,0,0,1.7-1.29,28.39,28.39,0,0,1,2.83-2,12.1,12.1,0,0,0,2.47-1.71c.41-.35.82-.7,1.23-1a2.71,2.71,0,0,0,.53-.41,6.14,6.14,0,0,1,1.29-.88,6.83,6.83,0,0,0,1.06-.47,4.76,4.76,0,0,0,2.47-1.76c.18-.3.35-.42.53-.42.41,0,.65.42.94.42.47,0,1.06-.42,1.71-1.18a3.45,3.45,0,0,1,1.29-1.06c.82-.29.94-1,1.47-1.06h.18a6.12,6.12,0,0,0,2.11-1.47,10.29,10.29,0,0,1,2.59-1.76,30.85,30.85,0,0,0,4.17-3,12.22,12.22,0,0,1,1.71-1.17c.41-.3.82-.53,1.23-.83a16.59,16.59,0,0,1,3.77-2.35,3.6,3.6,0,0,0,1.35-.82c.47-.47,1.17-.83,1.7-1.36a5.18,5.18,0,0,1,.71-.41c.88-.47,1.29-1.35,2.41-1.82a3,3,0,0,0,1.35-.94,4.21,4.21,0,0,1,1.41-1.12c1.41-.88,2.29-2.17,3.24-2.82a2.61,2.61,0,0,0,1.23-1.88,8.27,8.27,0,0,0,.41-2.59,5.42,5.42,0,0,0-.94-3,2.89,2.89,0,0,0-2.17-1.29,3.29,3.29,0,0,0-1.47.47,5.85,5.85,0,0,1-1.18.53c-.35.18-.71.29-1.12.47-2.11,1-4.41,1.59-6.52,2.59l-.59.17c-1.24.36-1.82.89-1.82,1.59.06.06.06.06.06.12a1,1,0,0,1-.18.41.86.86,0,0,0-.12.41c0,.18.12.35.41.41a5.21,5.21,0,0,0,1.59.42h.18c.47.05.7.11.7.17a.61.61,0,0,1-.23.47c-.3.18-.59.41-.88.59a18,18,0,0,0-3,2.29,36.47,36.47,0,0,1-3.41,2.71,22.91,22.91,0,0,1-2,1.29,4.66,4.66,0,0,0-1.35,1,15.14,15.14,0,0,1-2.47,1.94c-.94.65-1.77,1.23-2.47,1.82a11.72,11.72,0,0,1-1.53,1.06c-.41.3-1.77,1.29-4.06,3.12a6.12,6.12,0,0,1-1,.59,5.91,5.91,0,0,0-1.53,1.05A5.88,5.88,0,0,1,538,280l-1.7,1.12a19.47,19.47,0,0,0-1.88,1.29,24.56,24.56,0,0,1-2.77,2.06c-.41.18-1.53,1-3.47,2.35-.88.65-1.82,1.29-2.82,1.94-.47.29-1.41,1-2.82,2.12a6.87,6.87,0,0,1-.82.47,12.56,12.56,0,0,0-2,1.35c-1.35.94-2.35,1.65-2.88,2.12-1.12,1-2.06,1.47-4.59,3.41a27,27,0,0,1-3.11,2.29,29.72,29.72,0,0,0-3.3,2.41c-1.05.88-2.23,1.76-3.52,2.65a21,21,0,0,0-2.89,2.17c-.11.06-.23.18-.35.24a3.61,3.61,0,0,1-.76.47,4.8,4.8,0,0,0-1.24.88,10.71,10.71,0,0,1-1.82,1.29,18.1,18.1,0,0,0-2.7,1.94c-2.24,1.76-3.71,2.88-4.41,3.41-.41.3-.83.65-1.24,1s-1,.77-1.53,1.12a22.94,22.94,0,0,0-1.88,1.35c-.47.35-1.12.76-1.88,1.29-.41.3-.7.47-.76.53s-.3.3-.42.3-.29-.12-.29-.36a2.44,2.44,0,0,1,.35-.94A2,2,0,0,0,481,319a12.67,12.67,0,0,1,1.12-3.47c.53-1.23,1.12-2.41,1.7-3.53a9.68,9.68,0,0,0,.71-1.64c.53-1.83,1.12-2.71,1.71-2.71.29,0,.88-.64,1.11-1.58a2.66,2.66,0,0,1,.24-.95,3.1,3.1,0,0,0,.41-1.47c0-.29-.12-.41-.12-.64a.65.65,0,0,1,.06-.3,3.64,3.64,0,0,1,.88-1c.71-.53.94-1.53,1.41-2.3a16.57,16.57,0,0,0,.77-1.82.22.22,0,0,1,.06-.18,3.89,3.89,0,0,0,.23-.82c0-.35-.18-.41-.23-.41-.06.17-.18.29-.24.29l.12-.76c.06-.47.12-.71.29-.71.06.3.18.47.3.47s.29-.23.41-.7a4.93,4.93,0,0,1,1.29-2.06,1.32,1.32,0,0,0,.53-1v-.24a3.77,3.77,0,0,1,.47-1.58c.12-.18.47-1,1.06-2.41a2.82,2.82,0,0,0,.59-1.12.43.43,0,0,0-.12-.29,3.18,3.18,0,0,1,.23-.36c.53-.94.89-1.64,1.18-2.05.71-1.47,1.12-2.94,1.82-4.3a72.45,72.45,0,0,0,4.53-10.46c.47-1.35,2-5.47,4.64-12.47,1-2.88,1.77-4.93,2.3-6.05a16,16,0,0,0,1.17-3.23,8.33,8.33,0,0,1,.42-1.65c.29-.53.58-1.06.94-1.59a8.88,8.88,0,0,0,1.76-4.29,8.57,8.57,0,0,0-.35-2.47,4.18,4.18,0,0,0-1.88-2.7,4.45,4.45,0,0,0-2.77-1.36,3.41,3.41,0,0,0-2.17.59,9.28,9.28,0,0,0-1.77,3.77c-.17.52-.35,1-.53,1.47-.52,1.35-1,2.64-1.41,4a12.08,12.08,0,0,1-.76,2.06c-.24.53-.47,1.12-.71,1.71-.17.41-.35.82-.53,1.23-.29.76-1.47,3.94-3.64,9.64-.94,2.41-2.12,5.47-3.53,9.23a92.74,92.74,0,0,1-3.47,8.82c-.47,1-.64,2.12-1.11,3.24-.42.88-.53,1.88-1,2.88a28.1,28.1,0,0,0-1.18,2.82c-.29.7-.76,1.7-1.41,2.94a31.34,31.34,0,0,0-1.29,3.11,8.38,8.38,0,0,0-.65,1.71,2.71,2.71,0,0,1-.47,1.41,3.68,3.68,0,0,0-.88,2.53v.41a1.62,1.62,0,0,1-.47.76,1.12,1.12,0,0,0-.42.65,3.8,3.8,0,0,1-.7,1.59,19.92,19.92,0,0,0-1.94,4.17l-.18.71a3.82,3.82,0,0,1-.7,1.58,5.81,5.81,0,0,0-1,2.12c-.18.59-.53,1.47-1.06,2.71-1.71,4.11-2.94,7.29-3.7,9.58a18.11,18.11,0,0,1-1.18,3.23c-1,2-1.35,4.29-2.47,6.23a7.42,7.42,0,0,1-1.94,1.89,16.77,16.77,0,0,0-1.59,1.41,32.53,32.53,0,0,1-3.23,2.76c-.94.76-1.88,1.59-2.82,2.41a26.94,26.94,0,0,0-3.47,4.35c-.41.65-.94,1.24-.94,1.65a.89.89,0,0,0,.23.64,4.75,4.75,0,0,1,.41,1.24,7.84,7.84,0,0,0,.77,1.88,2.52,2.52,0,0,0,2.35.82c.47,0,.94-.06,1.47-.06.88,0,1.29.3,1.29.94a3,3,0,0,1-.35,1.18c-.17.41-.76,2.18-1.7,5.17-.83,2.59-1.47,4.53-2,5.77a7.41,7.41,0,0,0-.53,1.76,12.82,12.82,0,0,1-.41,1.29c-.41,1.35-.83,2.65-1.24,4-.29.94-.59,1.88-.88,2.88-1.47,4.76-2.82,9.53-3.94,14.41-.29.88-.82,3.29-1.64,7.23a61.72,61.72,0,0,0-1.24,9.29c-.06,1.23-.12,2-.18,2.41a8.7,8.7,0,0,0-.05,1.17,2,2,0,0,0,1.11,1.88,1.87,1.87,0,0,1,.88,1,2.44,2.44,0,0,0,.18.83.7.7,0,0,0,.47.41c.53.12.47.23.65.23a2.72,2.72,0,0,0,1.47-.94,1.85,1.85,0,0,0,.64-1.11,3.94,3.94,0,0,0-.11-.83,6.31,6.31,0,0,1-.12-1,8.05,8.05,0,0,0,.18-1.35,11.38,11.38,0,0,1-.24-1.88,7.29,7.29,0,0,1,.47-2.53,3.77,3.77,0,0,0,.35-1.29,1.23,1.23,0,0,0-.23-.77.7.7,0,0,1-.24-.53,1.54,1.54,0,0,1,.3-.76c.06-.06.11-.24.29-.53a3.56,3.56,0,0,0,.59-1.94,10.47,10.47,0,0,1,.41-2.88c.18-1.41,1.18-2.41,1.18-2.88s-.42-1.29-.42-1.71.18-.52.59-.58h.12a.83.83,0,0,0,.41-.12.71.71,0,0,0,.24-.53.42.42,0,0,0-.3-.47c-.17,0-.41.35-.7.35a.77.77,0,0,1-.18-.59,3.3,3.3,0,0,1,.94-1.82,4.18,4.18,0,0,1,.59-.76,3.91,3.91,0,0,0,1.06-1.94c0-.47-.59-.83-.59-1.24.06-.12.12-.17.24-.17l.11.05c.18,0,.41-.17.41-.23a.64.64,0,0,0-.17-.41,1.53,1.53,0,0,1-.18-.65,2.07,2.07,0,0,1,.47-1.06,1.1,1.1,0,0,0,.06-.47c0-.47.24-.53.47-.7a1.31,1.31,0,0,0,.47-.53c.12-.35.41-.41.41-.59a1.25,1.25,0,0,1-.11-.47c0-.24.23-.53.7-.94.18-.12.29-.24.29-.35s-.05-.18-.17-.18h-.24c-.23-.06-.47-.41-.64-.94a1.58,1.58,0,0,1-.24-.82c0-.83.24-1.36.77-1.59.29-.06.52-.59.64-1.53a7.34,7.34,0,0,1,.83-2.12,2.51,2.51,0,0,0,.41-.76l-.06-.65a2.49,2.49,0,0,1,.53-1.23,1.88,1.88,0,0,0,.23-1c.06-.94.83-1.53.83-2.06,0-.23-.12-.35-.12-.65s.06-.23.12-.23.29.35.52.35.36-.17.42-.59a2.17,2.17,0,0,0,.17-.7c0-.24-.06-.35-.23-.35s-.65.58-.88.58c-.06,0-.12-.06-.12-.17a2.91,2.91,0,0,1,.35-.94,2.75,2.75,0,0,1,.59-.59c.41-.24.59-.41.59-.53s-.12-.06-.3-.06l-.17.06a3.36,3.36,0,0,1,.76-1.76,4.32,4.32,0,0,0,.41-.71,13.81,13.81,0,0,1,.77-1.23,13.29,13.29,0,0,0,.88-1.65c.23-.71.47-1.06.7-1.06s.18.06.18.24a7.56,7.56,0,0,1-1,2.52,8,8,0,0,0-1,2.53c0,.06,0,.12.06.12s.41-.18.65-.47a5.23,5.23,0,0,0,.53-1.41c.05-.65.47-.65.94-2.35.29-1.12,1.23-1.65,2.7-1.65a13.07,13.07,0,0,1,4,.77,7.35,7.35,0,0,0,2.17.41c.53,0,1.06-.12,2.06-.12a8.65,8.65,0,0,1,1.65.29,10.68,10.68,0,0,0,2.82.36h1.88a3.12,3.12,0,0,1,1.59.35,1.83,1.83,0,0,0,.82.18,1.8,1.8,0,0,1,.65-.06,2.88,2.88,0,0,1,1.06.29,5.32,5.32,0,0,0,2.76.53c.47,0,.88-.06,1.29-.06a24.83,24.83,0,0,1,2.77.29,2.11,2.11,0,0,0,.64.06c.47,0,1.12-.17,1.41-.17h.36a24.68,24.68,0,0,0,2.82.35c2.35.41,3.64.59,3.82.59.71,0,.94-.3,1.41-.3a1.73,1.73,0,0,1,.77.3,8.85,8.85,0,0,0,4.29.76,21.29,21.29,0,0,1,3.76.59,26.74,26.74,0,0,0,4,.76c1.64.24,3.29.53,5,.83a9.43,9.43,0,0,0,1.88.17,8.89,8.89,0,0,1,1.35-.06,10.38,10.38,0,0,1,1.88.36,8.32,8.32,0,0,0,1.41.29,1.62,1.62,0,0,0,.77.18c.23,0,.41-.06.47-.24,0-.41-.42-.64-1.3-.76-.17,0-1.06-.18-2.76-.47-1.06-.18-2.12-.3-3.17-.47a12.87,12.87,0,0,1-2.94-.71c-.36-.12-.53-.23-.53-.41s.23-.35.76-.35a5.29,5.29,0,0,1,.65.12,2.75,2.75,0,0,0,1.06.23c.17,0,.29-.06.29-.23s-.53-.53-.53-.94c0-.24.35-.53.47-.65.53.7,1.29.65,1.41,1.29,0,.24-.12.35-.12.65s.36.35.83.41l.59-.06a10.26,10.26,0,0,1,2.82.47,4.31,4.31,0,0,0,1.53.24l1-.12a.61.61,0,0,1,.47.23,1.44,1.44,0,0,0,1.12.53,13.71,13.71,0,0,0,2.12.36,3.32,3.32,0,0,0,1.06-.18c.47,0,.35.41.53.41l.05-.06a.45.45,0,0,0,.3.06c.47,0,.88-.12,1.17-.12,0,.42.06.36.47.36s.77-.18,1-.18.52.35.76.35a.23.23,0,0,0,.23-.17v-.24c0-.18.12-.23.36-.23a7.2,7.2,0,0,1,.94.17c.23,0,.35-.12.35-.41v-.23c0-.12.06-.18.24-.18s.23,0,.29.06a3.9,3.9,0,0,1-.12.7c.06.3.35.47.82.53a7.93,7.93,0,0,1,2.12.18,3.53,3.53,0,0,0,1.77.53c.29,0,.7-.12.94-.12.88,0,.58.71,2.52.71a6.78,6.78,0,0,1,1.65.29,5,5,0,0,0,1.35.35,7.49,7.49,0,0,1,3.24.88c.88,0,1.29.06,1.29.24s-.18.18-.18.41a.36.36,0,0,0,.36.18,4.23,4.23,0,0,0,.47-.24,1.27,1.27,0,0,1,.64-.23.32.32,0,0,1,.36.35c0,.23-.06.35-.06.53V362c.06.17.17.23.23.23.24,0,.41-.18.65-.18s.53.36.76.36.47-.41.77-.41c.64,0,1.35.88,1.64.88.06,0,.06,0,.06-.06s-.23-.24-.23-.24h-.06v-.11c0-.06,0-.12.06-.12a2.45,2.45,0,0,1,1.11.53,2.69,2.69,0,0,0,1.71.64,3.44,3.44,0,0,0,.71-.05,1.38,1.38,0,0,1,.46-.06c.42.06.83.53,1,.53s.3-.18.47-.36a.77.77,0,0,1,.65-.41c.24,0,.53.18.82.59a1,1,0,0,0,.83.47c.23,0,.47,0,.47.41a6,6,0,0,1,1.53-.06c.64,0,.88-.59,1.11-.59-.05,0-.05.12-.05.36V365a.61.61,0,0,0,.52.53,9.8,9.8,0,0,0,1.18-.11c.59,0,.76.53,1.41.64.41,0,.53-.11.77-.11.05,0,.23.11.76.29a4,4,0,0,0,.94.29c.24,0,.59-.12.88-.12a2.18,2.18,0,0,1,.41.12,9.24,9.24,0,0,0,3.47,1,14,14,0,0,1,3.82,1,30.25,30.25,0,0,0,5.53,1.29c2.12.36,4.23.83,6.29,1.36a21.6,21.6,0,0,0,2.65.7,6,6,0,0,1,1.11.3,9.32,9.32,0,0,0,2,.46,63.51,63.51,0,0,0-2.66,6.83,27.26,27.26,0,0,0-1.89,8.82,17,17,0,0,0,.18,2.41A7.29,7.29,0,0,0,606,395a4.37,4.37,0,0,0,2.88,1.12,3.33,3.33,0,0,1,1.65.41c.7,0,1.76-1,3.23-2.24a11.8,11.8,0,0,0,1.35-1.7l.89-1.06a7,7,0,0,0,1.41-2.06,15.93,15.93,0,0,1,1.88-2.7,28.09,28.09,0,0,0,2.12-3.06A14.89,14.89,0,0,0,623,381c.18-.41.36-.83.59-1.24.54-.85,1-1.71,1.5-2.61,1,.42,1.71.27,2.45.67a5.7,5.7,0,0,0,1.65.47,13.7,13.7,0,0,1,2,.59,6.58,6.58,0,0,0,2.58.53,1.07,1.07,0,0,0,1.06-1.24,1.83,1.83,0,0,0-1.12-1.29,30.77,30.77,0,0,0-7.07-2.49,47.84,47.84,0,0,0,2.24-4.33c.94-1.94,1.94-3.88,3.06-5.7.53-1,1.06-2,1.47-3a18.2,18.2,0,0,1,1-2.23,33.8,33.8,0,0,0,2.23-5.18c.65-1.53,1.3-3,1.94-4.58a65.08,65.08,0,0,0,3.18-7.94q.71-2.2,1.59-4.41a8.61,8.61,0,0,0,.41-1.7c.06-.36.17-.71.23-1.12.3-1.18.53-2.12.65-2.82s.35-1.41.59-2.12A11.57,11.57,0,0,0,646,326a17.67,17.67,0,0,1,.59-3c.29-1.24.47-2.41.65-3.65a38.08,38.08,0,0,0,.52-5.76,17,17,0,0,0-1.7-7.11A5,5,0,0,0,644.71,304.69ZM577,316a18.66,18.66,0,0,1,3.29-3.41c.48-.41.94-.82,1.36-1.23,1.41-1.41,2.47-2.12,3.23-2.12.06,0,.65-.18.65,1a7.83,7.83,0,0,1-.77,2.94c-1.88,4.06-3.58,6.53-5.11,7.35a4.81,4.81,0,0,0-1.35,1.06.57.57,0,0,1-.42.17,1.18,1.18,0,0,1-.82-.47,1.86,1.86,0,0,1-.53-1.35,10.8,10.8,0,0,0-.18-1.7,3.12,3.12,0,0,1-.05-.65A2.66,2.66,0,0,1,577,316Zm-39.56-34c-.17.18-.29.29-.41.29s-.06,0-.06-.06S537.13,282,537.42,282Zm-2,1.23a.77.77,0,0,1,.3-.05c.12,0,.17.05.17.11a1.11,1.11,0,0,1-.58.36c-.06-.06-.12-.06-.12-.12S535.25,283.35,535.42,283.23Zm-1,.77c0-.06.17-.06.23-.06s.18,0,.18.06-.47.35-.53.35-.12-.06-.18-.12S534.19,284.12,534.37,284Zm-1.94,1.35a3.5,3.5,0,0,1,.7-.35,1.77,1.77,0,0,1-.76.7c-.59.59-1.06.89-1.41.89-.06,0-.06,0-.06-.06C530.9,286.17,532.07,285.53,532.43,285.35ZM530.31,287c.06,0,.12,0,.12.06s-.47.41-.71.41-.23-.06-.23-.12A1.17,1.17,0,0,1,530.31,287Zm-1.23.7c.17,0,.23.06.23.12s-.12.12-.29.24a1,1,0,0,1-.53.11c-.06,0-.06,0-.06-.06C528.43,287.82,529,287.7,529.08,287.7Zm-1.3.83a.84.84,0,0,1,.59-.24.13.13,0,0,1,.12.12,1.13,1.13,0,0,1-.77.47c-.06,0-.11,0-.11-.06A.47.47,0,0,1,527.78,288.53Zm-.94.82c.06,0,.06,0,.06.06v.06a.22.22,0,0,1-.18-.06Zm-5.41,3.76,3.35-2.53a2.34,2.34,0,0,1,1.3-.7c.11,0,.17.06.17.12,0,.35-.41.7-1.17,1.05a48.26,48.26,0,0,1-4.29,2.83c-.06.05-.12.11-.18.11a.13.13,0,0,1-.12-.11C520.49,293.46,520.79,293.23,521.43,293.11Zm-14,13.52c-.06,0-.06,0-.06-.05s.06-.3.24-.3l.17.06C507.79,306.52,507.67,306.63,507.44,306.63ZM520,294.17c.12,0,.18.06.18.12s-.12.23-.36.23a.21.21,0,0,1-.17-.06C519.67,294.29,519.9,294.17,520,294.17Zm-5,3.53c2.3-1.94,3.59-2.88,3.94-2.88.18,0,.24.06.24.11a14.13,14.13,0,0,1-1.94,1.65l-.71.53a13.64,13.64,0,0,1-2.47,1.65c-.23.05-.35.11-.41.11h-.12C513.55,298.81,514.26,298.34,515,297.7ZM506.26,304a15,15,0,0,0,2.18-1.59c.41-.29.82-.53,1.23-.82a10.78,10.78,0,0,0,1.71-1.3,2.64,2.64,0,0,1,1.12-.88.87.87,0,0,1,.47-.17s.11,0,.11.17-.11.3-.35.53a6.77,6.77,0,0,1-1.29,1,31.81,31.81,0,0,0-4.77,3.47c-.11.12-.17.18-.23.18-.29,0-.41-.12-.41-.3A.3.3,0,0,1,506.26,304Zm-17.93-11a.12.12,0,1,1,0,.24c-.06,0-.06,0-.06-.06S488.27,293,488.33,293Zm-.76,1.53c0-.29.35-1.06.47-1.06s.12.06.12.24c-.06.71-.42,1.7-.65,1.7-.06,0-.06,0-.06-.23A1.38,1.38,0,0,1,487.57,294.52Zm-1,3c.06,0,.12,0,.12.06a.32.32,0,0,1-.24.35c-.18,0-.23-.06-.23-.12S486.33,297.52,486.57,297.52Zm-.41-4.35c.06,0,.11.06.11.18,0,.47-.17.82-.35.82s-.17-.12-.17-.41S485.86,293.23,486.16,293.17Zm-.53,1.53c.06,0,.12.06.12.18v.05c-.12,0-.18-.05-.18-.11S485.57,294.7,485.63,294.7Zm-.18.7c.06,0,.06.06.06.12s-.06.12-.12.12-.06-.06-.06-.12A.13.13,0,0,1,485.45,295.4ZM472.4,339.5l-.12-.12c0-.06.06-.12.18-.12s.12,0,.12.06A.16.16,0,0,1,472.4,339.5Zm1.35-10.88-.06-.06.06-.06c.06,0,.06,0,.12.06S473.81,328.62,473.75,328.62Zm3.06-7.41c-.18,0-.3-.29-.3-.35s.06-.18.12-.18.24.12.24.36S476.87,321.21,476.81,321.21Zm.47-1.7c-.06,0-.06-.06-.06-.24s.06-.35.18-.35.11,0,.11.06C477.51,319.21,477.22,319.51,477.28,319.51Zm2.17,6.41c-.05,0-.11,0-.11-.06s.06-.06.11-.06.06,0,.06.06S479.51,325.92,479.45,325.92Zm2.12-1.71c-.12,0-.18,0-.18-.06s.18-.23.36-.23.12,0,.12.06S481.75,324.15,481.57,324.21Zm12.29-9.29h-.12v-.11a1,1,0,0,1,.3-.12s0,.06,0,.12S494,314.92,493.86,314.92Zm8.88-3.29c-.06,0-.12-.12-.12-.29s.23-.3.29-.3a.16.16,0,0,1,.18.18A.44.44,0,0,1,502.74,311.63Zm2.11-4.47a.12.12,0,0,1-.11-.12c0-.05.05-.05.17-.05S504.91,307.16,504.85,307.16ZM480.45,323c1-.65,1.77-1.24,2.36-1.71,1.35-1.06,2.7-2.06,4.05-3.06s2.59-1.88,3.82-2.88c.83-.58,1.65-1.17,2.53-1.76,1.06-.76,2.12-1.53,3.18-2.35.53-.41,1.11-.82,1.64-1.24,1-.76,1.71-1.29,2.12-1.64s1.12-.88,1.7-1.3a26.66,26.66,0,0,0,2.77-1.94,2.13,2.13,0,0,1,.88-.47.28.28,0,0,1,.29.3c0,.29-.82.82-1.23,1a14.92,14.92,0,0,0-2.29,1.47c-.77.64-1.59,1.23-2.41,1.82-2.3,1.59-4.41,3.41-6.82,5-1.59,1.11-3.12,2.29-4.59,3.47-1.12.88-2.29,1.76-3.41,2.58a28.5,28.5,0,0,0-3.53,2.53,5.16,5.16,0,0,1-1.59,1.23.6.6,0,0,1-.29.06.13.13,0,0,1-.12-.11c0-.06.06-.12.12-.3A2,2,0,0,1,480.45,323Zm3.12-19.41a.8.8,0,0,1,.12-.17c.17-.29.29-.47.47-.47s.06.06.06.18-.12.23-.18.41a1.38,1.38,0,0,0-.24.76c0,.47-.17.71-.47.71s-.29-.12-.35-.42A2.85,2.85,0,0,1,483.57,303.63Zm-1.06-2.11c.06-.24.18-.35.3-.35s.17.11.17.29a4.78,4.78,0,0,1-.7,1.82c-.06,0-.12-.11-.12-.29A3.25,3.25,0,0,1,482.51,301.52Zm0,5.11c.12,0,.18.06.18.12,0,.24-.41.77-.65.77-.06,0-.12-.12-.12-.3A.59.59,0,0,1,482.51,306.63Zm-.53-2.82c0,.06,0,.12-.06.12a.13.13,0,0,1-.11-.12Zm-.11,4.23c.17.06.23.12.23.24a1.62,1.62,0,0,1-.59.94c-.12,0-.17-.12-.17-.35a1.07,1.07,0,0,1,.23-.65A.33.33,0,0,1,481.87,308Zm-.83-2.82c.06-.29.18-.47.3-.47s.17.06.17.24a9,9,0,0,1-.47,1.29c-.17.24-.12.41-.17.41-.24,0-.36-.11-.36-.29S480.87,306.1,481,305.22Zm-.65,1.71a.22.22,0,0,1,.18.06l-.12.23c-.11,0-.17-.06-.17-.18Zm-.11.35.06.06-.06.06c-.06,0-.06,0-.06-.06S480.22,307.28,480.28,307.28Zm-.53.82c.06-.06.12-.11.17-.11s.06.05.06.17-.06.41-.17.94a2.65,2.65,0,0,1-.41,1.3l-.06.06c-.06,0-.12-.18-.12-.59A2.29,2.29,0,0,1,479.75,308.1Zm-1.71,4c.18-.41.36-.65.53-.65s.24.06.24.24a3.67,3.67,0,0,1-.71,1.41c0,.12-.06.18-.12.18a.56.56,0,0,1-.11-.36A2.5,2.5,0,0,1,478,312.1Zm-.06,5.47a6.29,6.29,0,0,0,.42-1.41,5.34,5.34,0,0,1,.47-1.59,18.24,18.24,0,0,0,1-2.41,2.72,2.72,0,0,1,.17-.71c.18-.52.41-.82.65-.82s.18.06.23.24a5.94,5.94,0,0,1-.29,1.23c-.06.53-.24.82-.47.88s-.59.94-.94,2.41c-.24.83-.35,1.3-.41,1.41a2.92,2.92,0,0,1-1,1.71l-.06.06a.13.13,0,0,1-.12-.12C477.69,318.27,477.81,318,478,317.57Zm-1.64-.82a5.9,5.9,0,0,0,.35-1.18c.3-1.24.59-1.82.88-1.82.06,0,.06.06.06.17a8.58,8.58,0,0,1-.47,1.88c-.59,1.71-.94,2.59-1.12,2.59s-.17-.06-.17-.23A4,4,0,0,1,476.34,316.75Zm0,5.23c.17,0,.23.06.23.23a3.89,3.89,0,0,1-.23.83c-.24,1.23-.82.88-.82,1.53-.06,0-.18-.53-.18-.53.06-.42.41-.89.41-1.12C476,322.27,476.16,322,476.34,322Zm-3.88,4.88a12.43,12.43,0,0,0,.94-2.06c.41-1.06.76-2.12,1.06-3.17a4.14,4.14,0,0,1,.76-1.71c.18-.18.24-.23.3-.23s.17.11.17.29a3.07,3.07,0,0,1-.59,1.59c-.17.29-.35.76-.64,1.41a36.43,36.43,0,0,0-1.71,4.52.32.32,0,0,1-.29.18c-.18,0-.3-.12-.3-.35A.83.83,0,0,1,472.46,326.86Zm-22.58,74.66c-.06.12-.06.18-.12.18s-.29-.18-.29-.53a4.51,4.51,0,0,1,.12-.82,6.18,6.18,0,0,1,.17-1.41c.06-.18.18-.24.24-.24s.18.35.18.77A7.69,7.69,0,0,1,449.88,401.52Zm.12-3.82h.12c0,.06,0,.12-.06.12A.19.19,0,0,0,450,397.7Zm.23-.06c-.05,0-.11-.11-.17-.17l.12-.12c.05,0,.11.06.11.18S450.29,397.64,450.23,397.64Zm12.7-60c.06,0,.12,0,.12.05s-.06.12-.12.18-.11-.06-.11-.18S462.88,337.73,462.93,337.68Zm-4.11,24.69c.06,0,.06.06.06.17s0,.12-.06.12-.06-.06-.12-.12S458.76,362.37,458.82,362.37Zm-3.18,10.46c.06,0,.12.06.12.24s0,.06-.06.06-.17-.06-.17-.18Zm-1.11,2.77h.05c.06,0,.06.06.06.11s0,.06-.06.06h-.11c-.06,0-.06,0-.06-.06S454.47,375.66,454.53,375.6Zm-4.06,20.75c-.06,0-.06-.29-.06-.29h.12c.12,0,.18,0,.18.06A.31.31,0,0,1,450.47,396.35Zm.41-1.18c-.06.12-.12.18-.17.18s-.12-.18-.12-.59.12-.53.35-.59a.16.16,0,0,1,.18.18C451.12,394.53,450.88,394.88,450.88,395.17Zm.24-1.52c-.18,0-.24-.06-.24-.24s0-.18.06-.18.24.12.24.3S451.18,393.65,451.12,393.65Zm4.29-4.59-.12-.12c.06-.06.06-.06.12-.06Zm1.17-11.76c-.05,0-.11-.06-.17-.23l.23-.06c.06,0,.06,0,.06.06S456.64,377.3,456.58,377.3Zm1.3-4.29c-.06,0-.12-.06-.12-.24a.45.45,0,0,1,.24-.41.19.19,0,0,1,.17-.06c.06,0,.12.06.12.18S458.05,373,457.88,373Zm1-2.35a2.47,2.47,0,0,0-.24.53l-.06.11c0-1.88.24-2.82.77-2.82.06,0,.11.06.11.24A6.63,6.63,0,0,1,458.88,370.66Zm.58-2.65s-.11,0-.11-.06l.11-.11c.06,0,.06.05.06.11S459.52,368,459.46,368Zm.77-1.17c-.18.35-.29.53-.47.53s-.12-.12-.12-.3a2.85,2.85,0,0,1,.18-.88c.06-.18.17-.29.29-.29s.24.06.3.23A1.56,1.56,0,0,1,460.23,366.84Zm1.29-.53c-.06,0-.11-.12-.11-.3,0-.47,0-.76.23-.88.06.47.12.77.12.83C461.76,366.19,461.7,366.31,461.52,366.31Zm.36-4.71c-.06.18-.06.42-.12.65a1.67,1.67,0,0,1-.59,1.18,1.48,1.48,0,0,0-.41.82,7.35,7.35,0,0,1,.53-2.29,12.83,12.83,0,0,0,.41-1.24,3.17,3.17,0,0,1,.35-1.17.49.49,0,0,1,.3-.3.4.4,0,0,1,.29.41A5.79,5.79,0,0,1,461.88,361.6Zm1.23-3.7c-.12.35-.23.53-.41.53s-.06-.06-.06-.18c0-.41.53-1.64.71-1.64A3.48,3.48,0,0,1,463.11,357.9Zm.35-1.53c-.11,0-.17-.12-.17-.35a.45.45,0,0,1,.29-.35c.06,0,.12.05.12.17S463.64,356.37,463.46,356.37Zm.65-2.58v-.06c0-.18.06-.24.23-.24a.13.13,0,0,1,.12.12C464.46,353.67,464.34,353.73,464.11,353.79Zm.29-3.59v.06c-.23.94-.64,1.82-.82,2.7a15.35,15.35,0,0,1-.88,2.35,16.42,16.42,0,0,0-.82,2.12c-.3.94-.59,1.88-.95,2.76-1.17,3.06-1.47,5.12-2.23,7.23a12.92,12.92,0,0,0-.76,2.3,27.4,27.4,0,0,0-.83,2.7,15.37,15.37,0,0,1-.88,2.71,15.61,15.61,0,0,0-.65,2.47,25.45,25.45,0,0,1-1.29,4.52,4.24,4.24,0,0,0-.35,1.18,11.8,11.8,0,0,1-.82,2.76,4.58,4.58,0,0,0-.3,1.24,5.76,5.76,0,0,1-.53,2,8.42,8.42,0,0,0-.76,3.42c-.06.17-.12.23-.24.23s-.35-.29-.35-.53a1.47,1.47,0,0,1,.41-.94,1.22,1.22,0,0,0,.35-.76,8.75,8.75,0,0,1-.17-1.18,12.22,12.22,0,0,1,.94-4.17,63.77,63.77,0,0,0,1.94-6.41c.41-1.59,1.17-4.35,2.41-8.29,1.12-3.71,2.12-6.94,3.12-9.58.64-1.89,1.11-3.3,1.35-4.18a15.87,15.87,0,0,1,.94-2.65,14.16,14.16,0,0,0,.94-1.88l.41-1.7c.12-.71.35-1.06.71-1.06a.33.33,0,0,1,.17.24Zm.3,2.82-.18-.06c0-.06.06-.06.12-.12h.06Zm.35-1.82c-.12,0-.18-.06-.18-.12s.06-.23.24-.23.23,0,.23.17A1.22,1.22,0,0,1,465.05,351.2Zm.47-.77c-.06,0-.12-.05-.18-.17a.19.19,0,0,1,.12-.06h.12l.06.06C465.64,350.32,465.58,350.38,465.52,350.43Zm.29-15.28c-.05,0-.11,0-.11-.06l.06-.06c.05,0,.11,0,.11.06S465.87,335.15,465.81,335.15Zm2-1.88c.06,0,.12.06.12.17a.56.56,0,0,1-.47.53c-.06,0-.12-.06-.12-.17S467.58,333.27,467.81,333.27Zm-1.64,1.52c-.06,0-.06,0-.06-.05a1.13,1.13,0,0,1,.29-.42c.24-.23.41-.35.59-.35s.06,0,.06.06-.06.24-.24.41A.78.78,0,0,1,466.17,334.79Zm1.29,6.77a1.09,1.09,0,0,1-.29.7c-.06,0-.12-.18-.12-.47v-.23c.12-1.18.41-1.77.88-1.77.12,0,.18.06.18.24C468.11,340.44,467.46,341,467.46,341.56Zm1.12.76c-.06,0-.12-.12-.12-.29a3,3,0,0,1,.12-.65c.12-.29.23-.47.41-.47s.18.06.18.23S468.87,342.32,468.58,342.32Zm1.82-3.88c-.35,1-.65,1.47-.88,1.47-.06,0-.06-.06-.06-.18a2,2,0,0,1,.18-.7c.17-.82.47-1.24.76-1.3.06,0,.12.06.18.12A1.85,1.85,0,0,1,470.4,338.44Zm.94,2.06c-.06.64-.12.94-.29.94s-.3-.35-.3-.59a2.07,2.07,0,0,1,.12-.59c.18-.41.35-.64.59-.64.06,0,.06,0,.06.05A3.54,3.54,0,0,0,471.34,340.5Zm33.92,11.58c-.17,0-.23,0-.23-.06s.06-.18.23-.18.18,0,.18.06A.16.16,0,0,1,505.26,352.08Zm1.24.06c-.06-.06-.06-.12-.12-.18l.12-.06c.06,0,.06.06.06.12S506.56,352.14,506.5,352.14ZM511,353c-.18,0-.3-.06-.3-.12s.06-.11.24-.17.29.06.29.17S511.2,353,511,353Zm2.05.35c-.29,0-.47-.06-.47-.17s.12-.12.41-.18.3.06.3.18S513.26,353.31,513.08,353.37Zm2.94.77a4.54,4.54,0,0,1-.88-.12c-.65-.18-.94-.41-.94-.59s.12-.17.35-.17a4.93,4.93,0,0,1,.94.11c.65.12.94.3.94.53S516.32,354.14,516,354.14Zm1.59,0a.42.42,0,0,1-.29-.06c-.06,0-.18.12-.36.12a.13.13,0,0,1-.11-.12c0-.18.11-.29.41-.35s.53.11.53.29S517.73,354.14,517.61,354.14Zm1.12.06c-.06,0-.06,0-.06-.06s.06-.06.12-.06l.05.06C518.84,354.2,518.79,354.2,518.73,354.2Zm.76.23c-.06,0-.12,0-.12-.06s.06-.06.12-.06l.06.06C519.55,354.43,519.55,354.43,519.49,354.43Zm1.59.77a.83.83,0,0,1-.41-.12c-.3-.18-.41-.35-.41-.59s.17-.35.53-.41a1.58,1.58,0,0,1,.41.12c.35.17.53.41.53.64S521.31,355.2,521.08,355.2Zm2.53-1.71c-.06,0-.12,0-.12-.06s.06-.06.12-.06l.06.06C523.67,353.49,523.67,353.49,523.61,353.49Zm.11-.23-.11-.06.17-.18c.06,0,.06,0,.06.06S523.78,353.26,523.72,353.26Zm3.3,1.64c-.18,0-.24-.12-.24-.35a.13.13,0,0,1,.12-.12s.23.24.23.35A.12.12,0,0,1,527,354.9Zm2.58-1.59c.06,0,.12.06.12.18a.46.46,0,0,0-.18.06s0-.06,0-.12A.12.12,0,0,1,529.6,353.31Zm.59,1.94a2,2,0,0,1-.82-.17l-.65-.24c-.17,0-.29.12-.47.12-.41-.12-.59-.29-.59-.53s.47-.41.53-.41a2,2,0,0,1,.77-.18A4,4,0,0,1,530,354c.47.06.7.23.7.41a.6.6,0,0,1-.23.41c.29.18.47.3.47.36Zm1.06.12c-.06,0-.12,0-.12-.06s0-.06.06-.06.06,0,.06.06Zm.18-.64c-.24,0-.47-.12-.47-.24s.11-.24.29-.24.41.12.41.3S531.6,354.73,531.43,354.73Zm.47-.89c0-.17.11-.23.29-.23s.47.18.47.35-.06.12-.23.12S531.78,353.84,531.9,353.84Zm1.23,1.94a.15.15,0,0,1-.17-.17c0-.06,0-.12,0-.12a.16.16,0,0,1,.18.18C533.19,355.72,533.19,355.78,533.13,355.78Zm.18-.64c-.53,0-1.24-.12-1.24-.41v-.18a.52.52,0,0,1,.36-.18.94.94,0,0,1,.76.36c.18.17.24.29.24.35S533.37,355.14,533.31,355.14Zm.7.17c-.11,0-.17-.06-.17-.23s.06-.06.12-.06.17.06.17.23S534.07,355.31,534,355.31Zm0-.76c-.12,0-.18-.06-.18-.12a.47.47,0,0,1,.35-.29c.12,0,.18.06.18.17A.43.43,0,0,1,534,354.55Zm1-.06c0-.12.12-.18.42-.18,0,0,.11,0,.11.06s-.11.18-.35.18S535,354.55,535,354.49Zm1.06.88c0,.24.53.77.53.83s0,.05-.06.11a.9.9,0,0,1-.47.18.43.43,0,0,1-.29-.12.85.85,0,0,1-.35-.76c0-.41.23-.71.76-1a1.83,1.83,0,0,1,.94-.24c.29,0,.47.12.47.41,0,.12-.18.18-.53.18C536.37,355,536,355.08,536,355.37Zm.41.12v.12c-.11,0-.17-.06-.17-.12s.06-.24.12-.24S536.42,355.37,536.42,355.49Zm5.06.35a11.8,11.8,0,0,1-1.82-.41,4,4,0,0,0-1.35.71.93.93,0,0,1-.3.11c-.18,0-.35-.17-.53-.53l-.12-.23a3.79,3.79,0,0,0,1.3-.41.21.21,0,0,1,.17-.06,2.36,2.36,0,0,1,.89-.18,2,2,0,0,1,1.35.53l.41-.06c.12.12.23.24.23.36S541.66,355.84,541.48,355.84Zm1.06,1c-.12,0-.18-.12-.18-.35a.16.16,0,0,1,.18-.18c.17,0,.23.06.23.24S542.71,356.84,542.54,356.84Zm1.12-.59c-.53,0-1.59-.29-1.59-.53,0-.05.17-.11.47-.11.7,0,1.59.17,1.59.41S544,356.25,543.66,356.25Zm4.76.83a1.52,1.52,0,0,1-1.18-.41c0-.12.12-.18.35-.18.59,0,1.18.18,1.18.41S548.65,357.08,548.42,357.08Zm19.1,5.52a.53.53,0,0,1-.23-.11.47.47,0,0,1,.23-.12c.06,0,.06.06.06.12S567.58,362.6,567.52,362.6Zm.59.47c-.17,0-.29-.11-.35-.35a.46.46,0,0,1,.47-.41c.18,0,.24.12.24.41S568.35,363.07,568.11,363.07Zm3.82-.7a.13.13,0,0,1-.11-.12c0-.06,0-.06.06-.06l.11.12C572,362.37,572,362.37,571.93,362.37Zm3.18.88c-.06,0-.06,0-.12-.06s0-.06.06-.12a.13.13,0,0,1,.12.12C575.17,363.25,575.17,363.25,575.11,363.25Zm5.94,1.06,0,0S581.05,364.29,581.05,364.31Zm1.64,1.41v-.06a1.71,1.71,0,0,1-1.11.3c-.59,0-.89-.12-.89-.3s.65-.35,1.12-.35c.65,0,.94.12.94.35Zm-.06-.88s-.11,0-.11-.06.06-.18.23-.18.18,0,.18.06S582.81,364.84,582.63,364.84Zm7.18,1.58c-.06,0-.18-.23-.18-.23a.13.13,0,0,1,.12-.12c.12,0,.17.06.17.12S589.87,366.42,589.81,366.42Zm27.68,14.29a15.11,15.11,0,0,0-1.3,2.06,8.21,8.21,0,0,1-.88,1.29c-.47.53-.64,1.36-1.35,1.88a2,2,0,0,0-.88,1.3,4.34,4.34,0,0,1-1.47,1.88,5.33,5.33,0,0,0-1,.88,5.33,5.33,0,0,1-2,1.47h-.24a.88.88,0,0,1-.76-.53,4.33,4.33,0,0,1-.29-1.53c0-1.88.7-5.29,2.17-10.17a13.59,13.59,0,0,1,1.18-3.47c.36-.7.71-1.42,1.06-2.14l.12,0a20,20,0,0,1,6.24,1.47,7.66,7.66,0,0,0,2.29.64l.09,0A55.85,55.85,0,0,1,617.49,380.71Zm22.22-47.21c-.23.53-.41,1-.59,1.53-.35,1.29-1,3.12-1.88,5.47q-3.18,8.82-4.58,11.11a16.81,16.81,0,0,0-1,1.88c-1,2.53-2.18,4.94-3.41,7.35a10.39,10.39,0,0,0-1,2.23,3.82,3.82,0,0,1-.41.94c-.7,1.18-1.35,2.41-1.94,3.65-1,1.87-2,3.73-3,5.56l-.44-.15a6.79,6.79,0,0,0-2.41-.65,4.47,4.47,0,0,1-1.59-.47A20.46,20.46,0,0,0,613,370.8c.63-1.31,1.09-2.24,1.39-2.73a40.55,40.55,0,0,1,2.12-4c.41-.76.7-1.35.88-1.76s.23-.53.35-.77a71.2,71.2,0,0,1,5.41-8.93,43.09,43.09,0,0,0,3.17-4.94l.89-1.23a4.23,4.23,0,0,0,1-1.65,3.48,3.48,0,0,1,1.42-1.71l.58-.41a3.43,3.43,0,0,0,.53-.88,3.9,3.9,0,0,1,.88-1.17,6.54,6.54,0,0,0,1.53-2.06,10.37,10.37,0,0,1,1.83-2.47,7.28,7.28,0,0,0,1.23-1.47,15.53,15.53,0,0,1,2.23-2.88c.71-1,1.18-1.47,1.47-1.53s.47.23.47.71A7.15,7.15,0,0,1,639.71,333.5Z"/><path class="cls-2" d="M634.65,337.15c.18,0,.24-.06.24-.24h-.06A.83.83,0,0,0,634.65,337.15Z"/><path class="cls-2" d="M655.64,325.15c0,.06.06.06.12.06a.8.8,0,0,1,.17-.12l-.23,0C655.64,325,655.64,325.09,655.64,325.15Z"/><path class="cls-2" d="M656.4,326.33c.18,0,.36-.18.53-.53a2.44,2.44,0,0,0,.47-1.29c0-.3-.11-.42-.29-.42-.41,0-.77,1.42-.77,1.89A.7.7,0,0,1,656.4,326.33Z"/><path class="cls-2" d="M657.29,319.86v-.17c0-.3-.06-.42-.24-.42s-.35.12-.35.42a4.19,4.19,0,0,0,.59.27Z"/><path class="cls-2" d="M657.29,320v0S657.3,320,657.29,320Z"/><path class="cls-2" d="M661.69,304.34l.06-.18a.22.22,0,0,0-.11-.05h-.06C661.58,304.28,661.64,304.34,661.69,304.34Z"/><path class="cls-2" d="M655.52,324.57h.06a4.17,4.17,0,0,0,.47-.71,1.9,1.9,0,0,0,.29-.94l-.05-.3a1.38,1.38,0,0,1,.35-.76,2.38,2.38,0,0,0,.12-.35c0-.18-.06-.24-.18-.24-.29,0-.41.36-.41,1.06a2.06,2.06,0,0,1-.35.88,3.06,3.06,0,0,0-.36,1.18C655.46,324.51,655.46,324.57,655.52,324.57Z"/><path class="cls-2" d="M688.74,317.75c0-.3.06-.59.06-1s-.18-1-.18-1.53l.06-.47c.06-.24.06-.47.12-.65a4.34,4.34,0,0,0-.12-.71,13.66,13.66,0,0,1-.29-2.29c-.06-1.88-.47-2.76-.47-3.94a3,3,0,0,0-.24-1.23,4.56,4.56,0,0,1-.29-1.35l-.06-.59a2.34,2.34,0,0,0-1.3-1.47,1.12,1.12,0,0,1-.41-.3,4.67,4.67,0,0,0-2.17-.88,2,2,0,0,0-.59.06,7.07,7.07,0,0,0-4.59,3.82c-1,1.82-2,3.65-2.94,5.59q-.44,1.05-2.29,4.58c-1.47,2.77-2.64,5.29-3.58,7.59-.42,1-.83,1.94-1.3,2.94-.65,1.47-1.23,2.94-1.82,4.41-.88,2.17-2.06,4.82-3.41,7.82-1,2.23-1.76,4.11-2.41,5.58-1.82,4.41-2.94,6.65-3.35,6.65-.18,0-.24-.18-.24-.48a4.73,4.73,0,0,1,.36-1.41,5.41,5.41,0,0,0,.23-1.82c0-.23.06-.94.18-2.12a12.37,12.37,0,0,1-.41-1.76,4.61,4.61,0,0,1,.17-1.35,19.17,19.17,0,0,0,.35-2.59,4.81,4.81,0,0,1,.53-1.82,2.83,2.83,0,0,0,.41-.77c1-3.23,1.71-5.64,2.06-7.17.77-3,1.18-3.94,1.82-7.17a35.46,35.46,0,0,1,1.65-5.7l.12-.3c.53-1.17.41-2.58.94-3.23a2.9,2.9,0,0,0,.41-.88c.06-.24.12-.47.18-.65a12.17,12.17,0,0,0,.59-1.47c.17-.65.41-1.23.58-1.82s.36-1.06.53-1.59a32.77,32.77,0,0,1,1.18-3.76c.53-1.24.94-2.47,1.35-3.71l.82-3.58a7.12,7.12,0,0,1,.77-1.82,12.91,12.91,0,0,0,1.64-4.65,7.06,7.06,0,0,1,1.24-3.06,16.23,16.23,0,0,0,.53-1.7c.35-1.24.94-2.94,1.76-5a15.15,15.15,0,0,0,.77-2.29,12.93,12.93,0,0,1,1.35-3.35,9.71,9.71,0,0,0,.7-1.65,22.46,22.46,0,0,0,1.24-4.23,4,4,0,0,1,.94-2.47,1.31,1.31,0,0,0,.35-.82v-.42a1.46,1.46,0,0,1,.35-.88,8.61,8.61,0,0,0,.89-2.35,24.65,24.65,0,0,1,.82-2.47,12.7,12.7,0,0,0,.65-1.88,19.23,19.23,0,0,1,.64-2.29,2.93,2.93,0,0,0,.3-.94,2,2,0,0,0-.65-1.42,4.88,4.88,0,0,0-3.29-1.11,2.22,2.22,0,0,0-1.88.65,3.55,3.55,0,0,0-.53,1.11c-.18.41-.71,1.53-1.71,3.41-.17.36-.88,1.71-2,4.06-.58,1.29-1.17,2.59-1.82,3.82a133,133,0,0,0-6.76,14.76c-.29.76-.53,1.47-.82,2.23l-.94,2.59a6,6,0,0,0-.77,2.47c0,.94.35,1.41,1,1.41a1.12,1.12,0,0,0,.65-.53.94.94,0,0,1,.76-.53c.18,0,.3.12.3.35a27.38,27.38,0,0,1-1.18,3.3c-1.7,5.11-2.59,8.17-2.76,9.17-.12.64-.3,1.29-.47,1.94a10.21,10.21,0,0,0-.77,2.76c-.06.76-1.06,1.35-1.29,2.82-.29,1.24-.18,1.59-.41,1.88-.41.18-.24,1.3-.77,2.06,0,.06-.06.06-.11.12a4.29,4.29,0,0,0-.3.59c.06.23.35.17.35.23s0,.3-.23.35a.42.42,0,0,0-.3.47,5.41,5.41,0,0,1-.35,1.12,7.08,7.08,0,0,1-.41,1,1.94,1.94,0,0,0-.29,1c0,.47.94.47.94,1a.77.77,0,0,1-.12.35.44.44,0,0,1-.41.36c-.24,0-.35-.18-.41-.59-.06-.18-.12-.24-.18-.24a4.62,4.62,0,0,0-.65,2.53.54.54,0,0,0,.12.41c.18,0,.29-.11.29-.41s0-.47,0-1a.38.38,0,0,1,.41-.29c.29,0,.41.29.47.82a3.32,3.32,0,0,1,.06.88c0,.77-.71,1.24-.71,1.53s.06.41.06.71-.41.23-.41.47v.76a1.31,1.31,0,0,1-.35.47,1.64,1.64,0,0,0-.3.71.51.51,0,0,0,.41.47c.47,0,.83-.65,1.06-2,.3-1.18.88-2.29,1.18-3.41l.94-3.65c.41-1.29,1.65-5.05,3.64-11.23a6.21,6.21,0,0,1,.71-1.35,4.18,4.18,0,0,0,.82-2.17,9.31,9.31,0,0,0-.17-1.18,5,5,0,0,1,.29-1.59v-.11a21.38,21.38,0,0,1,1.18-3.06c.41-1,1-2.65,1.64-4.82a31.46,31.46,0,0,1,1.06-3.24c.47-1.29.94-2.58,1.35-3.88a27.15,27.15,0,0,1,1.18-3.46,10.54,10.54,0,0,0,.88-2.12,4.81,4.81,0,0,1,.35-1.18c.65-1.35,1.12-2.06,1.41-2.06a.31.31,0,0,1,.12.24,15.1,15.1,0,0,1-1.29,3.94,14.44,14.44,0,0,0-.65,1.88c-.29,1.88-1.29,3.41-1.94,5.59-.18.52-.29,1-.47,1.47-.88,2.46-1.65,5-2.29,7.52a15.05,15.05,0,0,1-.77,2.12c-.17.47-.35.94-.53,1.47-.58,1.7-.94,2.88-1.11,3.52s-.36,1.3-.59,1.89a15.89,15.89,0,0,0-.59,1.58c-.29,1-.53,1.94-.82,2.94-.47,1.94-1.35,4.88-2.65,8.7a71.41,71.41,0,0,0-2.17,7.65c-.41,1.7-.88,3.35-1.47,5s-1.35,4.18-2.12,7.18l-.88,3.11a28.63,28.63,0,0,0-.53,2.94c-.06.77-.35,1.18-.76,1.18-.24,0-.42.06-.47.23s-.18.18-.47.41c-.06-.05-.06-.11-.06-.23a14.13,14.13,0,0,0,.23-2,4.54,4.54,0,0,1,.71-2.35,10.33,10.33,0,0,0,1-3.29c.23-1.06.53-2.24.94-3.53a5.28,5.28,0,0,0,.41-1.82,2.68,2.68,0,0,1-.12-.59c0-.41.41-.65.41-1.12,0-.23-.06-.41-.06-.82s.36-1.06.36-1.35c0-.06,0-.12-.06-.12-.41,0-.65.59-.71,1.82a13.42,13.42,0,0,1-.59,2.47c0,.65-.17.94-.47.94s-.23-.12-.23-.41a3,3,0,0,1,.23-1.18,2.85,2.85,0,0,0,.24-1.11l-.06-.18a2.48,2.48,0,0,1,.18-1,3.92,3.92,0,0,0,.47-1.53,7.54,7.54,0,0,1,.23-1.29c0-.18-.06-.24-.12-.24a.44.44,0,0,0-.41.36,3.64,3.64,0,0,0-.11.47c0,.11-.24,1.11-.71,2.94-.76,3.05-1.47,5.64-2.18,7.7-.29,1.06-.52,2.11-.7,3.17-.18.88-.35,1.59-.53,2.18a7,7,0,0,0-.47,2.11c0,.65.06.83.06,1.12a3.37,3.37,0,0,1-.24,1.18,14.59,14.59,0,0,0-.41,3.52,4.79,4.79,0,0,0,1.06,3.24,3.79,3.79,0,0,1,.71,2.11l.11.83c.12,1,.94,1.82,2.47,2.47.83.35,1.3.7,1.41,1,.06.11.36.17.77.17a2,2,0,0,0,.59-.06c.7,0,1.41-.53,2-1.58a12.29,12.29,0,0,0,1.65-3.41,18.73,18.73,0,0,0,.65-2.3,9.18,9.18,0,0,1,.23-1.11c1.18-3.06,1.88-4.94,2.06-5.65a16.83,16.83,0,0,1,.47-1.64c.29-.94.71-1.41,1.12-1.41a1.75,1.75,0,0,1,1.11.52,7.81,7.81,0,0,0,1.89,1c.41.18.76.36,1.11.53a7.49,7.49,0,0,0,3.82.94,12.92,12.92,0,0,0,1.36-.05,11.78,11.78,0,0,0,6.11-2.94A19.79,19.79,0,0,0,685,337a48.8,48.8,0,0,0,2.82-6.64,2.64,2.64,0,0,0,.17-.94,3.44,3.44,0,0,1,.42-1.71,8.58,8.58,0,0,0,.53-3.17c.05-.42.05-.83.11-1.24.06-.76.12-1.53.12-2.29a11.22,11.22,0,0,0-.29-2.59A2.15,2.15,0,0,1,688.74,317.75Zm-29.46-4.53c-.06,0-.06-.06-.11-.12l.11-.12c.06,0,.06.06.06.12S659.34,313.22,659.28,313.22Zm10.06-32.93c-.06,0-.06-.17-.12-.23l.18-.06c.06,0,.06,0,.06.06S669.4,280.29,669.34,280.29Zm-15.11,52c.12,0,.17.06.17.23s-.11.35-.41.65c-.17-.18-.23-.3-.23-.41A.43.43,0,0,1,654.23,332.27Zm-.77,2.82c.06,0,.06.06.12.12h-.12c-.06,0-.06,0-.06-.06Zm-2.35,11.35a.32.32,0,0,1-.35-.36.38.38,0,0,1,.35-.35c.18,0,.24.12.24.35S651.29,346.44,651.11,346.44Zm1.18-.06c-.12-.06-.18-.06-.18-.12l.18-.06Zm32-31.05a69.06,69.06,0,0,1-.35,8.24,11.07,11.07,0,0,1-.65,3.35l-.29.94a24.93,24.93,0,0,1-4.35,8.82,18.68,18.68,0,0,1-3.47,3.64,6.69,6.69,0,0,1-2.88,1.47c-1.12.24-1.53.77-2.06.77a1.78,1.78,0,0,1-1.06-.53,2.37,2.37,0,0,1-.88-1.83,12.4,12.4,0,0,1,.35-1.7l-.12-1.29a4.22,4.22,0,0,1,.47-1.47,5.35,5.35,0,0,0,.77-2.41c0-.42-.18-.65-.53-.71a1.68,1.68,0,0,0-.59.23.59.59,0,0,1-.47.24c-.23,0-.35-.18-.35-.47a2,2,0,0,1,.23-.88c0-.06,0-.06.06-.06l.88-1.94c.42-.88.77-1.71,1.12-2.59a16.3,16.3,0,0,1,1-2.29,8.79,8.79,0,0,0,1.06-2.47,6.25,6.25,0,0,1,1-2.18,13.12,13.12,0,0,0,1.29-2.41,9.3,9.3,0,0,1,.88-1.82,3.72,3.72,0,0,0,.65-1.76c0-.47.47-.47.94-1.35l1.12-1.94a4.38,4.38,0,0,1,1.41-1.77,5.28,5.28,0,0,0,1.23-1.47,5.52,5.52,0,0,1,1.47-1.94,1,1,0,0,1,.59-.23.79.79,0,0,1,.71.53,6.53,6.53,0,0,1,.29,2.05,10.18,10.18,0,0,0,.24,2,10.06,10.06,0,0,1,.29,2.18l-.06,1.35Z"/><path class="cls-2" d="M796.85,298.93c.7,0,.82.88.82,2.24a17.56,17.56,0,0,1-.12,1.82c0,.53,0,1,0,1.41s.23.76.52.76.65-.35.89-1.05a4.45,4.45,0,0,1,.35-.94A8.74,8.74,0,0,0,800,300a3,3,0,0,0-1.23-2.7,3.41,3.41,0,0,0-1.41-.47c-.3-.06-.59-.18-.83-.24a4.78,4.78,0,0,0-1.29-.18,6.05,6.05,0,0,0-3.64,1.47,24.91,24.91,0,0,0-4,3.47c-1.24,1.41-2.71,2.71-4.06,4.12s-2.58,2.76-4.29,4.58a24.81,24.81,0,0,0-3.12,3.83.89.89,0,0,0-.11.35.39.39,0,0,0,.29.41c.12,0,.24-.06.41-.24a2.92,2.92,0,0,0,.47-.88,4.6,4.6,0,0,1,1.35-1.76.8.8,0,0,1,.42-.18c.17.06.11.06.17.06a1.73,1.73,0,0,0,.3-.53,3.25,3.25,0,0,1,1.64-1.88,4,4,0,0,0,1.47-1.35c.88-1.18,1.71-1.35,2-2.29a3.42,3.42,0,0,1,.82-1.3,1.22,1.22,0,0,0,.18-.29c.77-.94,1.29-1.41,1.71-1.41s.41.11.41.35-.18.53-.53.82c-1.18,1-4.23,4.41-9.23,10.17-2.18,3.12-3.35,4.65-3.41,4.65a.45.45,0,0,1-.24.06c-.17,0-.23-.06-.23-.24a3.38,3.38,0,0,1,.94-1.64,2.63,2.63,0,0,0,.64-1.18c0-.18-.23-.12-.23-.29s.06-.12.18-.12.29-.06.29-.18-.12-.12-.41-.12l-.3.06a3.86,3.86,0,0,0-.76.94,6.72,6.72,0,0,0-.82,1.42,2.37,2.37,0,0,1-.71.94c-.59.47-.76,2-1.64,2.76a24,24,0,0,0-1.94,2.64,13.4,13.4,0,0,1-.77,1.3,1.71,1.71,0,0,0-.47,1,.88.88,0,0,1-.47.82,3.33,3.33,0,0,0-1.41,1.88,4.54,4.54,0,0,1-.94,1.53c-.41.41-.3,1-.59,1.53a12.54,12.54,0,0,0-1.29,1.59c-.47.64-1.35,2.05-2.59,4.23-.06.06-.06.18-.12.23a41.81,41.81,0,0,1-2.41,3.94,13.73,13.73,0,0,0-1.41,2.41c-.29.89-.64,1.3-.94,1.3-.06,0-.12-.18-.12-.53v-.3a1.51,1.51,0,0,1,.42-1.11,11.16,11.16,0,0,0,1.05-2.82c2.77-8.29,4.65-13.17,5.71-14.53a5.54,5.54,0,0,0,.7-1.64,11.32,11.32,0,0,1,.65-1.88c.41-1,1.06-2.47,1.88-4.47l.53-.88a18.16,18.16,0,0,0,1.23-2.89,45.72,45.72,0,0,1,1.83-4.4c.35-.77.7-1.59,1-2.41s.58-1.42.88-2.18a13.28,13.28,0,0,0,1.29-3.7,3,3,0,0,0-.12-.77,1,1,0,0,1-.17-.59c0-.29.23-.53.23-.7a.51.51,0,0,0-.17-.35,3.3,3.3,0,0,0-2.41-.89c-1.36,0-2.36.83-3,2.53a41.74,41.74,0,0,1-2.83,4.59,54.1,54.1,0,0,0-3.17,5.41c-.41.88-.88,1.7-1.35,2.52a13.19,13.19,0,0,0-1.59,4.18,6.7,6.7,0,0,0-.35,2.06,6.06,6.06,0,0,0,.41,2.23,3.15,3.15,0,0,1,.35,1.35,2.5,2.5,0,0,1-.59,1.59,4.87,4.87,0,0,1-.35.65,9,9,0,0,1-.76,1.64,14.2,14.2,0,0,0-1.3,3,4.64,4.64,0,0,1-.16.53c-3,2.51-5,4.14-6,4.82-.35.24-.7.47-1.11.77a11,11,0,0,1-3.12,1.76,4.29,4.29,0,0,1-1.76.41,1.25,1.25,0,0,1-.94-.41,1.18,1.18,0,0,1-.18-.65,3.63,3.63,0,0,1,.12-1.06c.06-.64.17-1.35.23-2a20.65,20.65,0,0,1,.35-2.59,10.74,10.74,0,0,0,.24-1.47,14,14,0,0,1,1.41-5.23,6.58,6.58,0,0,0,.76-2.47,3.37,3.37,0,0,1,.18-1.12,5.8,5.8,0,0,0,.35-1.59,1.82,1.82,0,0,0-2-2,5.28,5.28,0,0,1-1.12-.23,2.81,2.81,0,0,1-1.06-1.88,6.4,6.4,0,0,0-2.18-3.77,4.07,4.07,0,0,0-2.35-.94,3.37,3.37,0,0,0-1.29.3c-2.12,1.23-4.41,4.47-6.82,9.76a33,33,0,0,1-1.82,3.29c-.41.67-.88,1.55-1.44,2.66a46.48,46.48,0,0,1-7.26,2.28,21.85,21.85,0,0,1-5.82.94A10.53,10.53,0,0,1,711,330c-1.36-.17-1.06-.76-1.06-.82a2.16,2.16,0,0,1,.47-1.24,11.07,11.07,0,0,0,1.7-4.29l.24-1a4.19,4.19,0,0,1,.88-1.58,10.89,10.89,0,0,0,1.47-3.3,16.58,16.58,0,0,0,1.24-5.17c0-.41-.06-.88-.06-1.41a2.05,2.05,0,0,1,.47-1.35l.29-.36a3.33,3.33,0,0,0,1.06-2.58c0-2.3-.47-3.82-1.47-4.53a5.82,5.82,0,0,0-1.06-.76,4.43,4.43,0,0,0-.88-.12l-.41.06a2.84,2.84,0,0,1-.71.06c0-.06-.12-.06-.35-.06a6.28,6.28,0,0,0-1.06.06,2.44,2.44,0,0,0-1.35.82,5.2,5.2,0,0,1-3.18,2.53,3.81,3.81,0,0,0-1.94,1,18.41,18.41,0,0,0-6.4,7.46,20.41,20.41,0,0,0-1.24,3.83,11.4,11.4,0,0,0-.29,2.41,8.87,8.87,0,0,0,.47,2.88,5,5,0,0,1,.47,2c0,1.17-.83,3.17-2.53,6a16.93,16.93,0,0,0-2.06,6.18,8.11,8.11,0,0,0-.23,2.05,6.82,6.82,0,0,0,1.82,4.82c.06.06.12.18.18.24.52.47.35,1.29,1.23,1.29a.74.74,0,0,1,.65.24,1.17,1.17,0,0,0,.82.35,3.89,3.89,0,0,0,1.47-.35,8.62,8.62,0,0,0,4.23-4.76l.47-1.06a12.34,12.34,0,0,1,1.12-2.35c.29-.42.59-.89.88-1.36.94-1.82,1.88-2.76,2.77-2.76a6.55,6.55,0,0,1,1.47.18,7.55,7.55,0,0,0,3.7,0c1.18-.3,2.47-.42,3.7-.65a5.45,5.45,0,0,0,1.3-.65,4.62,4.62,0,0,1,1.52-.59c.06-.05.18-.05.24-.11a25,25,0,0,0,3.5-1.44l-.21.38c-.41.76-1.17,2.17-2.29,4.35-.71,1.35-1.35,2.82-2.12,4.23a4.85,4.85,0,0,0-.7,2.18,3.35,3.35,0,0,0,1.17,2.29,2.8,2.8,0,0,0,1.47.65,1.72,1.72,0,0,1,1,.29,1.24,1.24,0,0,0,.71.18,3,3,0,0,0,1.88-.94,9.14,9.14,0,0,0,2.82-3.77,11.82,11.82,0,0,1,2-3.35,3.77,3.77,0,0,0,.82-1.17,5.9,5.9,0,0,1,.88-1.41,22.88,22.88,0,0,0,1.83-2.77c.23-.41.82-1.29,1.76-2.76,1.12-1.82,1.76-2.76,1.88-2.88a1.94,1.94,0,0,1,1.59-.82c.65,0,.94.41.94,1.23a9.38,9.38,0,0,1-.47,2.29,1.76,1.76,0,0,0-.12.53,21.93,21.93,0,0,0-.82,5.29,12.1,12.1,0,0,0,.35,2.89c.77,2.46,2.65,4.05,5.76,4.7a6.5,6.5,0,0,0,1.06.12c1.41,0,2.76-.83,4.12-2.47a10.08,10.08,0,0,1,1.35-1.41,10.47,10.47,0,0,0,2.58-2.54c-.13.44-.26.89-.35,1.36a4.92,4.92,0,0,1-.53,1.41,8.56,8.56,0,0,0-.53,2.47,38,38,0,0,0-1.53,4.23l-.64,2.47a13.72,13.72,0,0,0-.65,2.12,8.6,8.6,0,0,0-.24,2.17c0,2.36.65,3.83,1.89,4.41a4,4,0,0,1,.88.53.86.86,0,0,0,.64.24,2.24,2.24,0,0,0,1.3-.59,19.57,19.57,0,0,0,3.7-4,55.12,55.12,0,0,0,4.35-7.64,12.14,12.14,0,0,1,1.65-2.88,5.67,5.67,0,0,0,1.35-3.18,1.65,1.65,0,0,1,.94-1.17,3.17,3.17,0,0,0,.88-.88,3.39,3.39,0,0,0,.3-.83,5.67,5.67,0,0,1,1.06-2.11,8.25,8.25,0,0,0,.82-1.47,5.5,5.5,0,0,1,1.12-1.65c.64-.7.64-1.06,1.11-1.53a2.09,2.09,0,0,0,.71-1.06c.29-1.11,1.17-1.88,1.64-3.05a7.39,7.39,0,0,1,.89-1.47c.41-.59,1.23-1.83,2.41-3.71.88-1.35,1.35-2.05,1.41-2.11.65-.71,1.23-1.47,1.82-2.24a74.14,74.14,0,0,1,5.76-6.47,6.24,6.24,0,0,0,.77-1,6.92,6.92,0,0,1,1.7-1.77,5.79,5.79,0,0,0,.94-.76l1-1.06a20,20,0,0,1,2.82-2.65,15.28,15.28,0,0,0,2-1.41A4.52,4.52,0,0,1,796.85,298.93ZM694.91,338c-.06,0-.06-.06-.06-.12s.06,0,.12.06Zm.35-1.18c-.06.18-.12.24-.18.24s-.11-.12-.11-.3.06-.41.23-.41.12.06.12.24A.33.33,0,0,1,695.26,336.85Zm6.88-16.11c.12,0,.18.12.18.3s0,.06-.06.12a.16.16,0,0,1-.18-.18C702.08,320.8,702.08,320.74,702.14,320.74Zm-5.53,12.35a4.54,4.54,0,0,0-.7,1.18l-.18.05c.18-.88.53-1.76.59-2.41a3.16,3.16,0,0,1,.76-1.82,5,5,0,0,0,.59-.94c.53-1.7,1-2.53,1.41-2.53.12,0,.18.12.18.3a7,7,0,0,1-1.06,2.53,5.85,5.85,0,0,0-.59,1.58A5.08,5.08,0,0,1,696.61,333.09Zm6.88.29c-.41.53-.7,1.06-1,1.53a21.66,21.66,0,0,1-1.41,2.24,27,27,0,0,0-1.76,2.7,1.71,1.71,0,0,1-1.3.82c-.29,0-.41-.23-.41-.64a3.85,3.85,0,0,1,.18-1.06,20.85,20.85,0,0,1,1.47-4.88,6.36,6.36,0,0,0,.53-1.76c.06-.53.23-.77.47-.77s.35-.64.53-1.12a2.05,2.05,0,0,1,.41-1.11.71.71,0,0,1,.53-.24,1.84,1.84,0,0,1,.76.53,4.75,4.75,0,0,0,.77.65c.7.41,1,.88,1,1.29A3.82,3.82,0,0,1,703.49,333.38Zm4.59-8.81a3.68,3.68,0,0,1-.41.76c-.42.82-.71,1.47-.89,1.88-.29.82-.64,1.24-1.11,1.24s-.88-.3-1.47-.95c-.88-.94-1.36-1.58-1.36-2s.3-.89.95-1.42a12.09,12.09,0,0,0,1.7-2.64c.29-.53.59-1.06.94-1.59a4.07,4.07,0,0,0,.88-1.64c.12-.71.77-.94.77-1.42a6.28,6.28,0,0,1-.12-.64c.18-.65,1.23-1.24,2.23-3.18.53-1.35,1.06-2.05,1.53-2.05s.59.29.59.88a8.79,8.79,0,0,1-.41,2.06c-.59,2.35-1.12,4.29-1.65,5.76A31.39,31.39,0,0,1,708.08,324.57Zm29.63-6.47v.12a16.42,16.42,0,0,1-3.3,7.46c-1.11,1.41-2.17,2.82-3.17,4.29a67.43,67.43,0,0,1-4.41,5.82c-.06.12-.06.18-.12.18s-.17-.12-.17-.41l.05-.18a.74.74,0,0,0,.06-.29c.24-.53.53-1.12.83-1.65a63.07,63.07,0,0,0,3.47-6.88,4.61,4.61,0,0,0,.58-1.52,2.46,2.46,0,0,1,.83-1.42,16.2,16.2,0,0,0,1.94-2.76c.17-.29.88-1.41,2.05-3.29.36-.77.77-1.18,1.18-1.18.24,0,.35.24.35.65A3.56,3.56,0,0,1,737.71,318.1Zm34.21,4.47c-.88,1.23-1.64,2.41-2.29,3.52-1.47,2.36-2.94,4.65-4.41,6.94a24.09,24.09,0,0,0-2,3.35l-.18.18c-.06,0-.11-.06-.11-.18a2.77,2.77,0,0,1,.35-1c1.35-2.58,3.35-5.76,5.88-9.58a24.65,24.65,0,0,0,1.53-2.47c.82-1.47,1.41-2.23,1.76-2.23.12,0,.18.11.18.29A2.37,2.37,0,0,1,771.92,322.57Zm1.18-2a.45.45,0,0,1-.24-.41c0-.18.3-.42.35-.42s.12.06.12.24C773.33,320.33,773.21,320.57,773.1,320.57Z"/><path class="cls-2" d="M778.8,311.87v.05h.12l.06-.11C778.86,311.81,778.8,311.81,778.8,311.87Z"/><path class="cls-2" d="M815.77,336.06s0-.05,0-.09Z"/><path class="cls-2" d="M815.36,338.09a1.22,1.22,0,0,1,.3-.71,2.06,2.06,0,0,0,.23-.94.64.64,0,0,0-.12-.38s0,0,0,0c0,.17-.36.47-.36.65a.33.33,0,0,0,.18.29.82.82,0,0,0-.35.7A1,1,0,0,0,815.36,338.09Z"/><path class="cls-2" d="M842.41,263.71c-.65-.17-1.12-.76-1.65-.76-.23,0-.35.06-.76.06a4.7,4.7,0,0,0-.82-.06.91.91,0,0,0-.53.18,4.42,4.42,0,0,0-1.36,2.23,14.51,14.51,0,0,1-.88,2,9.76,9.76,0,0,0-1.06,2.82v.24a1.42,1.42,0,0,1-.41.94,8.07,8.07,0,0,0-1.17,2.64c-.12.42-.24.83-.36,1.18-.41,1.18-.82,2.35-1.17,3.47a68.62,68.62,0,0,1-2.77,7.52,22.24,22.24,0,0,1-1.94,3.3c-.35.58-.7,1.17-1,1.76a26.22,26.22,0,0,1-1.36,2.29c-.41.65-.82,1.36-1.23,2.12a28.46,28.46,0,0,1-2.06,3.53,6.06,6.06,0,0,0-.76,1.64,7.27,7.27,0,0,1-1.06,2.12,5.31,5.31,0,0,0-.77,1.41c-.29.53-.53,1.12-.82,1.65s-.47.94-.65,1.41a10.57,10.57,0,0,1-1.82,2.88c-.65.76-1,1.06-1.64,1.06a4.88,4.88,0,0,1-2.06-.53,8.28,8.28,0,0,0-3.18-.59c-.17,0-.35-.06-.59-.06a2.35,2.35,0,0,0-.88.18,5.35,5.35,0,0,0-.88.76c-.41.41-.7.65-.88.82a9.15,9.15,0,0,0-2.47,3.41c-1.76,3.65-2.94,6.06-3.47,7.29A61.41,61.41,0,0,0,795.2,337a10.61,10.61,0,0,0-.18,1.94,6.49,6.49,0,0,0,1.71,4.76,5.71,5.71,0,0,0,2.47,1.65,2.66,2.66,0,0,0,1,.18,3.11,3.11,0,0,0,2.88-1.89,5,5,0,0,1,1-1.23,6.32,6.32,0,0,0,1.58-2.71,7.29,7.29,0,0,0,.42-1.52,1.28,1.28,0,0,1,.52-.77,6.88,6.88,0,0,0,2-2.94,4.31,4.31,0,0,0,.59-1.64,10.54,10.54,0,0,1,.65-1.77l1.7-3.35v-.06a8,8,0,0,0,1.06-3.88,3.08,3.08,0,0,1,1-2.17,7.65,7.65,0,0,0,1.35-3v-.18A4.55,4.55,0,0,1,816,316a9.93,9.93,0,0,0,1.71-3.11,85.59,85.59,0,0,1,3.82-7.88,37.74,37.74,0,0,0,2.35-4.71,13.26,13.26,0,0,1,1.06-2,7.52,7.52,0,0,0,.47-1.12c.23-.53.41-.77.53-.77a2.38,2.38,0,0,1,.35.12,1.55,1.55,0,0,0-.53,1.24,11.49,11.49,0,0,1-.65,2.23A29.17,29.17,0,0,0,824,303.4a14.64,14.64,0,0,1-.47,1.47,8.78,8.78,0,0,0-.53,1.65,3.89,3.89,0,0,0,.35,1.17c0,.18-.18.3-.47.35s-.41.06-.41.47.88.18.88.42-.23.29-.64.47c-.77.17-1,1.29-1,1.7a21.21,21.21,0,0,1-.83,2.88,5.74,5.74,0,0,0-.47,1.77c0,.23.06.47.06.7a1.31,1.31,0,0,1-.35.83,3.19,3.19,0,0,0-.53,1.35.93.93,0,0,0,.41.76c.06.06.12.12.12.18s-.18.23-.47.35-.3.24-.35.65a4.08,4.08,0,0,1-.36,1.11,5.64,5.64,0,0,0-.41,1.36,2.61,2.61,0,0,1-.35,1.53.75.75,0,0,0-.18.47v.11a1.74,1.74,0,0,1-.23.89,6.2,6.2,0,0,0-.42,1.52c0,.36-.11.65-.11.83s0,.11.06.11a2.25,2.25,0,0,0,.35-.11c.06-.36.06-.53.12-.53s.17.23.17.76a3.67,3.67,0,0,1-.11.65.3.3,0,0,1-.3.23.38.38,0,0,1-.41-.35l.06-.12a3.78,3.78,0,0,0-.65,2.24,19.17,19.17,0,0,1-.41,2.17,9.1,9.1,0,0,0-.41,2.41c.17-.06.35-.41.53-1.06.06-.05.06-.05.12-.05s.17.29.17.82a4.09,4.09,0,0,1-.23,1.41,4.36,4.36,0,0,0-.3,1.12c0,.06,0,.35-.06,1-.06.82-.23,1.23-.53,1.23-.11,0-.17-.12-.17-.41l.06-1.35c0-.18-.06-.24-.12-.24s-.12.18-.18.59a23.46,23.46,0,0,0-.41,4.12,17,17,0,0,1-.17,2.35c-.06,1-.12,2-.12,3a15,15,0,0,0,1.53,6.58,7,7,0,0,0,2.41,2.53,6.39,6.39,0,0,0,2.41,1.06,3,3,0,0,1,1.06.29.34.34,0,0,0,.35.18,1.42,1.42,0,0,0,.82-.35,4,4,0,0,0,1.76-2.36,9.21,9.21,0,0,1,1.18-2.52,1.89,1.89,0,0,0,.53-.89c0-.23-.18-.35-.47-.41l-.35-.06a2.8,2.8,0,0,0-1.77,1,6.92,6.92,0,0,1-.7.65,5.07,5.07,0,0,1-2.77,1.53c-.76-.06-1.11-.53-1.11-1.47a2.61,2.61,0,0,1,.06-.65,7.72,7.72,0,0,0,.11-1.17,9.37,9.37,0,0,0-.11-1.3,15.93,15.93,0,0,1-.18-2.47,29.38,29.38,0,0,1,1.06-7.35,35.33,35.33,0,0,0,.76-3.94c.12-.88.3-1.7.47-2.58a18.71,18.71,0,0,1,1.06-4.18,6.22,6.22,0,0,0,.65-2.58c0-.3-.12-.77-.12-1.18,0-.7.76-.41.82-.94l.12-1.41a5.86,5.86,0,0,1,.47-1.71,5,5,0,0,0,.35-1.35,4.16,4.16,0,0,1,.53-1.64l.59-1.47a2.11,2.11,0,0,1,.47-.59,1.83,1.83,0,0,0,.71-1.3c.11-.64.64-2.52,1.58-5.58a8.23,8.23,0,0,0,.24-1.18,3.9,3.9,0,0,1,.59-1.88,1.13,1.13,0,0,0,.41-.7c0-.06-.06-.12-.06-.18a2.78,2.78,0,0,1,.41-1.06c.35-.88.94-2.64,1.76-5.35.71-2.23,1.12-3.64,1.24-4.23a13.91,13.91,0,0,1,.71-2.24c.47-1,.58-2.17,1-3.17a24.37,24.37,0,0,0,1.77-4.82,3.91,3.91,0,0,1,.35-1.35,11,11,0,0,0,.65-2.06c.29-1.47.94-2.88,1.35-4.29a16.16,16.16,0,0,1,1.35-3.41,25.54,25.54,0,0,0,1.12-2.47c.29-.65.59-1.3.94-1.94a13.64,13.64,0,0,0,.94-3.06,10.17,10.17,0,0,0,.29-1.88A1.57,1.57,0,0,0,842.41,263.71ZM813,317.1v.06c-.82,1.64-1.64,3.11-2.46,4.47-.48.82-.89,1.64-1.3,2.46a58.71,58.71,0,0,1-4.7,7.47,12.72,12.72,0,0,0-1.12,1.82c-.41.65-.82,1.3-1.23,1.83a3.07,3.07,0,0,0-.94,1.58c0,.12-.06.18-.12.18s-.18-.23-.18-.47a14.45,14.45,0,0,1,1.41-4.41,43,43,0,0,1,2.59-6.17c.41-.77.82-1.59,1.23-2.41,1-1.88,1.94-3.59,2.88-5.18a2.08,2.08,0,0,1,1.12-1.11.87.87,0,0,0,.53-.47,2.77,2.77,0,0,1,.94-.89,3.2,3.2,0,0,1,1.35-.7.43.43,0,0,1,.47.47A3.43,3.43,0,0,1,813,317.1Zm5.06,9.11c.12-.17.18-.23.24-.23a.15.15,0,0,1,.17.17c0,.24-.29.59-.41.59s-.06-.06-.06-.12A1.44,1.44,0,0,1,818,326.21Zm-1.18,5.7c.12,0,.18.18.18.59s-.12.47-.18.47-.11-.23-.11-.7C816.78,332,816.78,331.91,816.83,331.91Zm-.23,1.47v.12c-.06,0-.12,0-.12-.06S816.54,333.38,816.6,333.38Zm1.53,5.12c-.06.23-.18.47-.24.7a20.63,20.63,0,0,1-.47,2.12,18.5,18.5,0,0,0-.7,4.53,4.38,4.38,0,0,1-.47,2.23.22.22,0,0,1-.18.06c-.06,0-.12-.35-.18-1,0-.88.06-1.12.06-1.41v-.47a4.56,4.56,0,0,1,.24-1.65,14,14,0,0,0,.59-3.23v-.88c.05-.53.64-.94.88-1.65a.86.86,0,0,1,.12-.41c.05-.41.17-.59.35-.59s.29.18.29.47A3.23,3.23,0,0,1,818.13,338.5Zm.41-2.24c-.18,0-.24-.17-.24-.52,0-.53.12-.83.42-.83.11,0,.17.12.23.36C819,335.85,818.72,336.26,818.54,336.26Zm.65-13.75q-.18,0-.18-.36c0-.29.06-.41.18-.41s.11.12.11.41S819.25,322.45,819.19,322.51Zm.29-1.06c-.06,0-.12-.12-.18-.18l.24-.11c.06,0,.06,0,.06,0S819.54,321.45,819.48,321.45Zm1.41-5.17h-.06c-.06-.06-.06-.12-.06-.24a.13.13,0,0,1,.12-.12l.18.18A.16.16,0,0,1,820.89,316.28Zm1.41-4.88c-.12,0-.17-.24-.17-.71l0-.59c.06-.29.24-.41.42-.41s.17.12.17.35C822.77,310.46,822.48,311.4,822.3,311.4Zm2.41-7.47c-.12.29-.23.41-.35.41s-.12-.12-.12-.41.24-.65.41-.65.12.06.12.18A1.14,1.14,0,0,1,824.71,303.93Zm1-3.12a2.57,2.57,0,0,1-.59,1.41c0,.06-.11.12-.17.12s-.12-.12-.12-.29a8.25,8.25,0,0,1,.06-.83c.35-1.35.7-2,1.12-2,0,0,0,0,0,.11C826.06,299.75,825.77,300.28,825.71,300.81Zm.47-2.11c-.06.11-.06.17-.12.17s0-.06-.11-.17.17-.12.23-.12Zm.71-1.71v.12c-.18.82-.35,1.23-.59,1.23v-.11a15.62,15.62,0,0,1,.24-1.65c.05-.29.17-.47.35-.47s.12.18.12.53C827,296.82,827,296.93,826.89,297Zm.59-2.29c-.18,0-.24-.12-.24-.29s.12-.24.18-.24.17.12.17.29S827.53,294.7,827.48,294.7Zm.29-1.24c-.12,0-.18,0-.18-.11s0-.06.06-.06a.32.32,0,0,1,.24-.18H828A.85.85,0,0,1,827.77,293.46Z"/></g></g></svg>